%TF.GenerationSoftware,KiCad,Pcbnew,9.0.4*%
%TF.CreationDate,2025-08-24T10:47:50+01:00*%
%TF.ProjectId,usbc-7seg,75736263-2d37-4736-9567-2e6b69636164,rev?*%
%TF.SameCoordinates,Original*%
%TF.FileFunction,Copper,L2,Inr*%
%TF.FilePolarity,Positive*%
%FSLAX46Y46*%
G04 Gerber Fmt 4.6, Leading zero omitted, Abs format (unit mm)*
G04 Created by KiCad (PCBNEW 9.0.4) date 2025-08-24 10:47:50*
%MOMM*%
%LPD*%
G01*
G04 APERTURE LIST*
%TA.AperFunction,HeatsinkPad*%
%ADD10O,1.600000X1.000000*%
%TD*%
%TA.AperFunction,HeatsinkPad*%
%ADD11O,2.100000X1.000000*%
%TD*%
%TA.AperFunction,ViaPad*%
%ADD12C,0.450000*%
%TD*%
%TA.AperFunction,ViaPad*%
%ADD13C,0.600000*%
%TD*%
%TA.AperFunction,Conductor*%
%ADD14C,0.150000*%
%TD*%
G04 APERTURE END LIST*
D10*
%TO.N,GND*%
%TO.C,J1*%
X129425000Y-107820000D03*
D11*
X133605000Y-107820000D03*
D10*
X129425000Y-99180000D03*
D11*
X133605000Y-99180000D03*
%TD*%
D12*
%TO.N,+3.3V*%
X156400000Y-106900000D03*
%TO.N,/LSB_EN*%
X145650000Y-109150000D03*
X145650000Y-107950000D03*
%TO.N,/LED_B*%
X152800000Y-100350000D03*
X145550000Y-99950000D03*
%TO.N,/LED_A*%
X151550000Y-99850000D03*
%TO.N,Net-(Q2-D)*%
X151150000Y-105900000D03*
%TO.N,/LED_F*%
X149739921Y-99968999D03*
%TO.N,Net-(U3-BOOT0{slash}PB8)*%
X146300000Y-101300000D03*
%TO.N,/LED_DP1*%
X149034844Y-100181634D03*
%TO.N,/LED_G*%
X145600000Y-98100000D03*
%TO.N,Net-(Q1-D)*%
X142555000Y-98949000D03*
%TO.N,GND*%
X140000000Y-105400000D03*
X146576827Y-105896827D03*
X156400000Y-97600000D03*
X150174416Y-106136348D03*
X146600000Y-102100000D03*
X147661251Y-101368286D03*
D13*
%TO.N,Net-(U4-VI)*%
X134500000Y-109750000D03*
D12*
%TO.N,GND*%
X135500000Y-107000000D03*
X136250000Y-107000000D03*
X137700000Y-106300000D03*
%TO.N,/LED_DP2*%
X152800000Y-106800000D03*
%TO.N,/LED_C*%
X151525682Y-106949682D03*
%TO.N,/LED_D*%
X149080336Y-106950863D03*
%TO.N,/LED_E*%
X147680319Y-107147554D03*
%TO.N,/LED_A*%
X143900000Y-100124000D03*
%TO.N,/LED_F*%
X140900000Y-100200000D03*
%TO.N,/LED_DP1*%
X139876409Y-100223591D03*
%TO.N,/LED_G*%
X138400000Y-100400000D03*
%TO.N,/LED_C*%
X143500000Y-107000000D03*
%TO.N,/LED_DP2*%
X144712318Y-106912318D03*
%TO.N,/LED_D*%
X141000000Y-106500000D03*
%TO.N,/LED_E*%
X140200000Y-106500000D03*
%TO.N,Net-(U3-BOOT0{slash}PB8)*%
X155300000Y-101200000D03*
%TO.N,/~{RST}*%
X146400000Y-103600000D03*
X140215595Y-101884404D03*
%TO.N,/D+*%
X135900000Y-103100000D03*
%TO.N,/D-*%
X136000000Y-103800000D03*
%TD*%
D14*
%TO.N,/LED_D*%
X146651472Y-106500000D02*
X147251472Y-105900000D01*
%TO.N,/LED_DP2*%
X148600000Y-107201041D02*
X148600000Y-106575736D01*
%TO.N,/LED_D*%
X145077818Y-106500000D02*
X146651472Y-106500000D01*
X144346818Y-106500000D02*
X144484500Y-106362318D01*
X144940136Y-106362318D02*
X145077818Y-106500000D01*
X144484500Y-106362318D02*
X144940136Y-106362318D01*
%TO.N,/LED_DP2*%
X148823959Y-107425000D02*
X148600000Y-107201041D01*
X148600000Y-106575736D02*
X148224264Y-106200000D01*
X147375736Y-106200000D02*
X146775736Y-106800000D01*
X151323545Y-106374000D02*
X150272545Y-107425000D01*
%TO.N,/LED_D*%
X148348528Y-105900000D02*
X149080336Y-106631808D01*
%TO.N,/LED_DP2*%
X152800000Y-106700000D02*
X152474000Y-106374000D01*
%TO.N,/LED_C*%
X147500000Y-106500000D02*
X148098586Y-106500000D01*
%TO.N,/LED_D*%
X149080336Y-106631808D02*
X149080336Y-106950863D01*
%TO.N,/LED_DP2*%
X150272545Y-107425000D02*
X148823959Y-107425000D01*
X148224264Y-106200000D02*
X147375736Y-106200000D01*
%TO.N,/LED_D*%
X147251472Y-105900000D02*
X148348528Y-105900000D01*
%TO.N,/LED_E*%
X147426873Y-107401000D02*
X147680319Y-107147554D01*
%TO.N,/LED_DP2*%
X152474000Y-106374000D02*
X151323545Y-106374000D01*
%TO.N,/LED_C*%
X146899000Y-107101000D02*
X147500000Y-106500000D01*
%TO.N,/LED_E*%
X143875736Y-107900000D02*
X145024264Y-107900000D01*
%TO.N,/LED_C*%
X151350318Y-106949682D02*
X151525682Y-106949682D01*
X148098586Y-106500000D02*
X148299000Y-106700414D01*
X148699281Y-107726000D02*
X150574000Y-107726000D01*
%TO.N,/LED_E*%
X145024264Y-107900000D02*
X145523264Y-107401000D01*
%TO.N,/LED_C*%
X144100000Y-107600000D02*
X144802455Y-107600000D01*
%TO.N,/LED_E*%
X145523264Y-107401000D02*
X147426873Y-107401000D01*
%TO.N,/LED_D*%
X141000000Y-106500000D02*
X144346818Y-106500000D01*
%TO.N,/LED_E*%
X141400000Y-107700000D02*
X143675736Y-107700000D01*
%TO.N,/LED_DP2*%
X144824636Y-106800000D02*
X144712318Y-106912318D01*
%TO.N,/LED_C*%
X148299000Y-106700414D02*
X148299000Y-107325719D01*
%TO.N,/LED_DP2*%
X146775736Y-106800000D02*
X144824636Y-106800000D01*
%TO.N,/LED_E*%
X140200000Y-106500000D02*
X141400000Y-107700000D01*
X143675736Y-107700000D02*
X143875736Y-107900000D01*
%TO.N,/LED_C*%
X143500000Y-107000000D02*
X144100000Y-107600000D01*
X145301455Y-107101000D02*
X146899000Y-107101000D01*
X144802455Y-107600000D02*
X145301455Y-107101000D01*
X148299000Y-107325719D02*
X148699281Y-107726000D01*
X150574000Y-107726000D02*
X151350318Y-106949682D01*
%TO.N,/LED_G*%
X138400000Y-100400000D02*
X139226000Y-99574000D01*
X139226000Y-99574000D02*
X143926000Y-99574000D01*
X143926000Y-99574000D02*
X144750000Y-98750000D01*
X144750000Y-98750000D02*
X144950000Y-98750000D01*
X144950000Y-98750000D02*
X145600000Y-98100000D01*
%TO.N,/LED_DP1*%
X145022182Y-100800000D02*
X144426082Y-100800000D01*
%TO.N,/LED_F*%
X146750332Y-99699000D02*
X149469922Y-99699000D01*
X145949332Y-100500000D02*
X146750332Y-99699000D01*
%TO.N,/LED_DP1*%
X146696184Y-100181634D02*
X145777818Y-101100000D01*
%TO.N,/LED_F*%
X143198182Y-100200000D02*
X143672182Y-100674000D01*
%TO.N,/LED_DP1*%
X145322182Y-101100000D02*
X145022182Y-100800000D01*
X140302818Y-100650000D02*
X139876409Y-100223591D01*
%TO.N,/LED_F*%
X144127818Y-100674000D02*
X144301818Y-100500000D01*
%TO.N,/LED_DP1*%
X143449736Y-100974000D02*
X143125736Y-100650000D01*
%TO.N,/LED_F*%
X140900000Y-100200000D02*
X143198182Y-100200000D01*
%TO.N,/LED_DP1*%
X145777818Y-101100000D02*
X145322182Y-101100000D01*
X149034844Y-100181634D02*
X146696184Y-100181634D01*
%TO.N,/LED_A*%
X143900000Y-100097918D02*
X143900000Y-100124000D01*
%TO.N,/LED_F*%
X143672182Y-100674000D02*
X144127818Y-100674000D01*
%TO.N,/LED_A*%
X147322653Y-98701001D02*
X147073654Y-98950000D01*
%TO.N,/LED_DP1*%
X144252082Y-100974000D02*
X143449736Y-100974000D01*
%TO.N,/LED_A*%
X150201001Y-98701001D02*
X147322653Y-98701001D01*
X151550000Y-99850000D02*
X151350000Y-99850000D01*
%TO.N,/LED_DP1*%
X144426082Y-100800000D02*
X144252082Y-100974000D01*
%TO.N,/LED_A*%
X145875736Y-99200000D02*
X144797918Y-99200000D01*
%TO.N,/LED_F*%
X144301818Y-100500000D02*
X145949332Y-100500000D01*
%TO.N,/LED_A*%
X144797918Y-99200000D02*
X143900000Y-100097918D01*
X146125736Y-98950000D02*
X145875736Y-99200000D01*
X147073654Y-98950000D02*
X146125736Y-98950000D01*
%TO.N,/LED_DP1*%
X143125736Y-100650000D02*
X140302818Y-100650000D01*
%TO.N,/LED_A*%
X151350000Y-99850000D02*
X150201001Y-98701001D01*
%TO.N,/LED_F*%
X149469922Y-99699000D02*
X149739921Y-99968999D01*
%TO.N,/LSB_EN*%
X145650000Y-107950000D02*
X145650000Y-109150000D01*
%TO.N,/LED_B*%
X152750000Y-100400000D02*
X152800000Y-100350000D01*
%TO.N,Net-(U3-BOOT0{slash}PB8)*%
X153424264Y-100550000D02*
X152924264Y-101050000D01*
X150857370Y-100731634D02*
X147096184Y-100731634D01*
%TO.N,/LED_B*%
X145550000Y-99950000D02*
X146101000Y-99399000D01*
%TO.N,Net-(U3-BOOT0{slash}PB8)*%
X154650000Y-100550000D02*
X153424264Y-100550000D01*
%TO.N,/LED_B*%
X146101000Y-99399000D02*
X149949000Y-99399000D01*
%TO.N,Net-(U3-BOOT0{slash}PB8)*%
X152924264Y-101050000D02*
X151175736Y-101050000D01*
%TO.N,/LED_B*%
X149949000Y-99399000D02*
X150950000Y-100400000D01*
%TO.N,Net-(U3-BOOT0{slash}PB8)*%
X151175736Y-101050000D02*
X150857370Y-100731634D01*
X147096184Y-100731634D02*
X146527818Y-101300000D01*
X146527818Y-101300000D02*
X146300000Y-101300000D01*
X155300000Y-101200000D02*
X154650000Y-100550000D01*
%TO.N,/LED_B*%
X150950000Y-100400000D02*
X152750000Y-100400000D01*
%TD*%
M02*
