%TF.GenerationSoftware,KiCad,Pcbnew,9.0.4*%
%TF.CreationDate,2025-08-24T10:47:50+01:00*%
%TF.ProjectId,usbc-7seg,75736263-2d37-4736-9567-2e6b69636164,rev?*%
%TF.SameCoordinates,Original*%
%TF.FileFunction,Soldermask,Top*%
%TF.FilePolarity,Negative*%
%FSLAX46Y46*%
G04 Gerber Fmt 4.6, Leading zero omitted, Abs format (unit mm)*
G04 Created by KiCad (PCBNEW 9.0.4) date 2025-08-24 10:47:50*
%MOMM*%
%LPD*%
G01*
G04 APERTURE LIST*
G04 Aperture macros list*
%AMRoundRect*
0 Rectangle with rounded corners*
0 $1 Rounding radius*
0 $2 $3 $4 $5 $6 $7 $8 $9 X,Y pos of 4 corners*
0 Add a 4 corners polygon primitive as box body*
4,1,4,$2,$3,$4,$5,$6,$7,$8,$9,$2,$3,0*
0 Add four circle primitives for the rounded corners*
1,1,$1+$1,$2,$3*
1,1,$1+$1,$4,$5*
1,1,$1+$1,$6,$7*
1,1,$1+$1,$8,$9*
0 Add four rect primitives between the rounded corners*
20,1,$1+$1,$2,$3,$4,$5,0*
20,1,$1+$1,$4,$5,$6,$7,0*
20,1,$1+$1,$6,$7,$8,$9,0*
20,1,$1+$1,$8,$9,$2,$3,0*%
G04 Aperture macros list end*
%ADD10O,1.600000X1.000000*%
%ADD11O,2.100000X1.000000*%
%ADD12RoundRect,0.150000X-0.500000X0.150000X-0.500000X-0.150000X0.500000X-0.150000X0.500000X0.150000X0*%
%ADD13RoundRect,0.075000X-0.575000X0.075000X-0.575000X-0.075000X0.575000X-0.075000X0.575000X0.075000X0*%
%ADD14C,0.650000*%
%ADD15RoundRect,0.200000X-0.200000X-1.300000X0.200000X-1.300000X0.200000X1.300000X-0.200000X1.300000X0*%
%ADD16RoundRect,0.140000X0.140000X0.170000X-0.140000X0.170000X-0.140000X-0.170000X0.140000X-0.170000X0*%
%ADD17RoundRect,0.218750X-0.218750X-0.256250X0.218750X-0.256250X0.218750X0.256250X-0.218750X0.256250X0*%
%ADD18RoundRect,0.135000X-0.185000X0.135000X-0.185000X-0.135000X0.185000X-0.135000X0.185000X0.135000X0*%
%ADD19RoundRect,0.135000X0.185000X-0.135000X0.185000X0.135000X-0.185000X0.135000X-0.185000X-0.135000X0*%
%ADD20R,1.360000X1.230000*%
G04 APERTURE END LIST*
D10*
%TO.C,J1*%
X129425000Y-107820000D03*
D11*
X133605000Y-107820000D03*
D10*
X129425000Y-99180000D03*
D11*
X133605000Y-99180000D03*
D12*
X134245000Y-100300000D03*
X134245000Y-101100000D03*
D13*
X134245000Y-101750000D03*
X134245000Y-102750000D03*
X134245000Y-104250000D03*
X134245000Y-105250000D03*
D12*
X134245000Y-105900000D03*
X134245000Y-106700000D03*
X134245000Y-106700000D03*
X134245000Y-105900000D03*
D13*
X134245000Y-104750000D03*
X134245000Y-103750000D03*
X134245000Y-103250000D03*
X134245000Y-102250000D03*
D12*
X134245000Y-101100000D03*
X134245000Y-100300000D03*
D14*
X133105000Y-106390000D03*
X133105000Y-100610000D03*
%TD*%
D15*
%TO.C,U1*%
X138425000Y-98100000D03*
X139695000Y-98100000D03*
X140965000Y-98100000D03*
X142235000Y-98100000D03*
X143505000Y-98100000D03*
X144775000Y-98100000D03*
X144775000Y-108900000D03*
X143505000Y-108900000D03*
X142235000Y-108900000D03*
X140965000Y-108900000D03*
X139695000Y-108900000D03*
X138425000Y-108900000D03*
%TD*%
D16*
%TO.C,C7*%
X128920000Y-109900000D03*
X129880000Y-109900000D03*
%TD*%
D17*
%TO.C,FB1*%
X133287500Y-109900000D03*
X131712500Y-109900000D03*
%TD*%
D15*
%TO.C,U2*%
X146455000Y-108900000D03*
X147725000Y-108900000D03*
X148995000Y-108900000D03*
X150265000Y-108900000D03*
X151535000Y-108900000D03*
X152805000Y-108900000D03*
X152805000Y-98100000D03*
X151535000Y-98100000D03*
X150265000Y-98100000D03*
X148995000Y-98100000D03*
X147725000Y-98100000D03*
X146455000Y-98100000D03*
%TD*%
D18*
%TO.C,R1*%
X136400000Y-106310000D03*
X136400000Y-105290000D03*
%TD*%
D19*
%TO.C,R2*%
X136400000Y-101310000D03*
X136400000Y-100290000D03*
%TD*%
D20*
%TO.C,SW1*%
X156400000Y-101200000D03*
X156400000Y-105560000D03*
%TD*%
D19*
%TO.C,R4*%
X156400000Y-99510000D03*
X156400000Y-98490000D03*
%TD*%
M02*
