M48
; DRILL file {KiCad 9.0.4} date 2025-08-24T10:48:39+0100
; FORMAT={-:-/ absolute / metric / decimal}
; #@! TF.CreationDate,2025-08-24T10:48:39+01:00
; #@! TF.GenerationSoftware,Kicad,Pcbnew,9.0.4
; #@! TF.FileFunction,Plated,1,4,PTH
FMAT,2
METRIC
; #@! TA.AperFunction,Plated,PTH,ViaDrill
T1C0.200
; #@! TA.AperFunction,Plated,PTH,ViaDrill
T2C0.300
; #@! TA.AperFunction,Plated,PTH,ComponentDrill
T3C0.600
%
G90
G05
T1
X135.5Y-107.0
X135.9Y-103.1
X136.0Y-103.8
X136.25Y-107.0
X137.7Y-106.3
X138.4Y-100.4
X139.876Y-100.224
X140.0Y-105.4
X140.2Y-106.5
X140.216Y-101.884
X140.9Y-100.2
X141.0Y-106.5
X142.555Y-98.949
X143.5Y-107.0
X143.9Y-100.124
X144.712Y-106.912
X145.55Y-99.95
X145.6Y-98.1
X145.65Y-107.95
X145.65Y-109.15
X146.3Y-101.3
X146.4Y-103.6
X146.577Y-105.897
X146.6Y-102.1
X147.661Y-101.368
X147.68Y-107.148
X149.035Y-100.182
X149.08Y-106.951
X149.74Y-99.969
X150.174Y-106.136
X151.15Y-105.9
X151.526Y-106.95
X151.55Y-99.85
X152.8Y-100.35
X152.8Y-106.8
X155.3Y-101.2
X156.4Y-97.6
X156.4Y-106.9
T2
X134.5Y-109.75
T3
X129.725Y-99.18G85X129.125Y-99.18
G05
X129.725Y-107.82G85X129.125Y-107.82
G05
X134.155Y-99.18G85X133.055Y-99.18
G05
X134.155Y-107.82G85X133.055Y-107.82
G05
M30
