%TF.GenerationSoftware,KiCad,Pcbnew,9.0.4*%
%TF.CreationDate,2025-08-24T10:48:39+01:00*%
%TF.ProjectId,usbc-7seg,75736263-2d37-4736-9567-2e6b69636164,rev?*%
%TF.SameCoordinates,Original*%
%TF.FileFunction,Drillmap*%
%TF.FilePolarity,Positive*%
%FSLAX45Y45*%
G04 Gerber Fmt 4.5, Leading zero omitted, Abs format (unit mm)*
G04 Created by KiCad (PCBNEW 9.0.4) date 2025-08-24 10:48:39*
%MOMM*%
%LPD*%
G01*
G04 APERTURE LIST*
%ADD10C,0.050000*%
%ADD11C,0.200000*%
%ADD12C,0.100000*%
G04 APERTURE END LIST*
D10*
X15700000Y-11098580D02*
X15700000Y-11100000D01*
X15900000Y-10898580D02*
G75*
G02*
X15700000Y-11098580I-200000J0D01*
G01*
X15700000Y-9600000D02*
G75*
G02*
X15900000Y-9800000I0J-200000D01*
G01*
X12625000Y-9600000D02*
X12625000Y-11100000D01*
X12625000Y-11100000D02*
X15700000Y-11100000D01*
X15900000Y-10898580D02*
X15900000Y-9800000D01*
X15700000Y-9600000D02*
X12625000Y-9600000D01*
D11*
D12*
X13540000Y-10690000D02*
X13560000Y-10710000D01*
X13560000Y-10690000D02*
X13540000Y-10710000D01*
X13580000Y-10300000D02*
X13600000Y-10320000D01*
X13600000Y-10300000D02*
X13580000Y-10320000D01*
X13590000Y-10370000D02*
X13610000Y-10390000D01*
X13610000Y-10370000D02*
X13590000Y-10390000D01*
X13615000Y-10690000D02*
X13635000Y-10710000D01*
X13635000Y-10690000D02*
X13615000Y-10710000D01*
X13760000Y-10620000D02*
X13780000Y-10640000D01*
X13780000Y-10620000D02*
X13760000Y-10640000D01*
X13830000Y-10030000D02*
X13850000Y-10050000D01*
X13850000Y-10030000D02*
X13830000Y-10050000D01*
X13977641Y-10012359D02*
X13997641Y-10032359D01*
X13997641Y-10012359D02*
X13977641Y-10032359D01*
X13990000Y-10530000D02*
X14010000Y-10550000D01*
X14010000Y-10530000D02*
X13990000Y-10550000D01*
X14010000Y-10640000D02*
X14030000Y-10660000D01*
X14030000Y-10640000D02*
X14010000Y-10660000D01*
X14011559Y-10178440D02*
X14031559Y-10198440D01*
X14031559Y-10178440D02*
X14011559Y-10198440D01*
X14080000Y-10010000D02*
X14100000Y-10030000D01*
X14100000Y-10010000D02*
X14080000Y-10030000D01*
X14090000Y-10640000D02*
X14110000Y-10660000D01*
X14110000Y-10640000D02*
X14090000Y-10660000D01*
X14245500Y-9884900D02*
X14265500Y-9904900D01*
X14265500Y-9884900D02*
X14245500Y-9904900D01*
X14340000Y-10690000D02*
X14360000Y-10710000D01*
X14360000Y-10690000D02*
X14340000Y-10710000D01*
X14380000Y-10002400D02*
X14400000Y-10022400D01*
X14400000Y-10002400D02*
X14380000Y-10022400D01*
X14461232Y-10681232D02*
X14481232Y-10701232D01*
X14481232Y-10681232D02*
X14461232Y-10701232D01*
X14545000Y-9985000D02*
X14565000Y-10005000D01*
X14565000Y-9985000D02*
X14545000Y-10005000D01*
X14550000Y-9800000D02*
X14570000Y-9820000D01*
X14570000Y-9800000D02*
X14550000Y-9820000D01*
X14555000Y-10785000D02*
X14575000Y-10805000D01*
X14575000Y-10785000D02*
X14555000Y-10805000D01*
X14555000Y-10905000D02*
X14575000Y-10925000D01*
X14575000Y-10905000D02*
X14555000Y-10925000D01*
X14620000Y-10120000D02*
X14640000Y-10140000D01*
X14640000Y-10120000D02*
X14620000Y-10140000D01*
X14630000Y-10350000D02*
X14650000Y-10370000D01*
X14650000Y-10350000D02*
X14630000Y-10370000D01*
X14647683Y-10579683D02*
X14667683Y-10599683D01*
X14667683Y-10579683D02*
X14647683Y-10599683D01*
X14650000Y-10200000D02*
X14670000Y-10220000D01*
X14670000Y-10200000D02*
X14650000Y-10220000D01*
X14756125Y-10126829D02*
X14776125Y-10146829D01*
X14776125Y-10126829D02*
X14756125Y-10146829D01*
X14758032Y-10704755D02*
X14778032Y-10724755D01*
X14778032Y-10704755D02*
X14758032Y-10724755D01*
X14893484Y-10008163D02*
X14913484Y-10028163D01*
X14913484Y-10008163D02*
X14893484Y-10028163D01*
X14898034Y-10685086D02*
X14918034Y-10705086D01*
X14918034Y-10685086D02*
X14898034Y-10705086D01*
X14963992Y-9986900D02*
X14983992Y-10006900D01*
X14983992Y-9986900D02*
X14963992Y-10006900D01*
X15007442Y-10603635D02*
X15027442Y-10623635D01*
X15027442Y-10603635D02*
X15007442Y-10623635D01*
X15105000Y-10580000D02*
X15125000Y-10600000D01*
X15125000Y-10580000D02*
X15105000Y-10600000D01*
X15142568Y-10684968D02*
X15162568Y-10704968D01*
X15162568Y-10684968D02*
X15142568Y-10704968D01*
X15145000Y-9975000D02*
X15165000Y-9995000D01*
X15165000Y-9975000D02*
X15145000Y-9995000D01*
X15270000Y-10025000D02*
X15290000Y-10045000D01*
X15290000Y-10025000D02*
X15270000Y-10045000D01*
X15270000Y-10670000D02*
X15290000Y-10690000D01*
X15290000Y-10670000D02*
X15270000Y-10690000D01*
X15520000Y-10110000D02*
X15540000Y-10130000D01*
X15540000Y-10110000D02*
X15520000Y-10130000D01*
X15630000Y-9750000D02*
X15650000Y-9770000D01*
X15650000Y-9750000D02*
X15630000Y-9770000D01*
X15630000Y-10680000D02*
X15650000Y-10700000D01*
X15650000Y-10680000D02*
X15630000Y-10700000D01*
X13465000Y-10975000D02*
G75*
G02*
X13435000Y-10975000I-15000J0D01*
G01*
X13435000Y-10975000D02*
G75*
G02*
X13465000Y-10975000I15000J0D01*
G01*
X12942500Y-9888000D02*
X12942500Y-9948000D01*
X12912500Y-9918000D02*
X12972500Y-9918000D01*
X12972500Y-9888000D02*
X12912500Y-9888000D01*
X12912500Y-9948000D02*
G75*
G02*
X12912500Y-9888000I0J30000D01*
G01*
X12912500Y-9948000D02*
X12972500Y-9948000D01*
X12972500Y-9948000D02*
G75*
G03*
X12972500Y-9888000I0J30000D01*
G01*
X12942500Y-10752000D02*
X12942500Y-10812000D01*
X12912500Y-10782000D02*
X12972500Y-10782000D01*
X12972500Y-10752000D02*
X12912500Y-10752000D01*
X12912500Y-10812000D02*
G75*
G02*
X12912500Y-10752000I0J30000D01*
G01*
X12912500Y-10812000D02*
X12972500Y-10812000D01*
X12972500Y-10812000D02*
G75*
G03*
X12972500Y-10752000I0J30000D01*
G01*
X13360500Y-9888000D02*
X13360500Y-9948000D01*
X13330500Y-9918000D02*
X13390500Y-9918000D01*
X13415500Y-9888000D02*
X13305500Y-9888000D01*
X13305500Y-9948000D02*
G75*
G02*
X13305500Y-9888000I0J30000D01*
G01*
X13305500Y-9948000D02*
X13415500Y-9948000D01*
X13415500Y-9948000D02*
G75*
G03*
X13415500Y-9888000I0J30000D01*
G01*
X13360500Y-10752000D02*
X13360500Y-10812000D01*
X13330500Y-10782000D02*
X13390500Y-10782000D01*
X13415500Y-10752000D02*
X13305500Y-10752000D01*
X13305500Y-10812000D02*
G75*
G02*
X13305500Y-10752000I0J30000D01*
G01*
X13305500Y-10812000D02*
X13415500Y-10812000D01*
X13415500Y-10812000D02*
G75*
G03*
X13415500Y-10752000I0J30000D01*
G01*
D11*
X12883277Y-11413984D02*
X12883277Y-11213984D01*
X12883277Y-11213984D02*
X12930896Y-11213984D01*
X12930896Y-11213984D02*
X12959467Y-11223508D01*
X12959467Y-11223508D02*
X12978515Y-11242555D01*
X12978515Y-11242555D02*
X12988039Y-11261603D01*
X12988039Y-11261603D02*
X12997562Y-11299698D01*
X12997562Y-11299698D02*
X12997562Y-11328269D01*
X12997562Y-11328269D02*
X12988039Y-11366365D01*
X12988039Y-11366365D02*
X12978515Y-11385412D01*
X12978515Y-11385412D02*
X12959467Y-11404460D01*
X12959467Y-11404460D02*
X12930896Y-11413984D01*
X12930896Y-11413984D02*
X12883277Y-11413984D01*
X13083277Y-11413984D02*
X13083277Y-11280650D01*
X13083277Y-11318746D02*
X13092801Y-11299698D01*
X13092801Y-11299698D02*
X13102324Y-11290174D01*
X13102324Y-11290174D02*
X13121372Y-11280650D01*
X13121372Y-11280650D02*
X13140420Y-11280650D01*
X13207086Y-11413984D02*
X13207086Y-11280650D01*
X13207086Y-11213984D02*
X13197562Y-11223508D01*
X13197562Y-11223508D02*
X13207086Y-11233031D01*
X13207086Y-11233031D02*
X13216610Y-11223508D01*
X13216610Y-11223508D02*
X13207086Y-11213984D01*
X13207086Y-11213984D02*
X13207086Y-11233031D01*
X13330896Y-11413984D02*
X13311848Y-11404460D01*
X13311848Y-11404460D02*
X13302324Y-11385412D01*
X13302324Y-11385412D02*
X13302324Y-11213984D01*
X13435658Y-11413984D02*
X13416610Y-11404460D01*
X13416610Y-11404460D02*
X13407086Y-11385412D01*
X13407086Y-11385412D02*
X13407086Y-11213984D01*
X13664229Y-11413984D02*
X13664229Y-11213984D01*
X13664229Y-11213984D02*
X13730896Y-11356841D01*
X13730896Y-11356841D02*
X13797562Y-11213984D01*
X13797562Y-11213984D02*
X13797562Y-11413984D01*
X13978515Y-11413984D02*
X13978515Y-11309222D01*
X13978515Y-11309222D02*
X13968991Y-11290174D01*
X13968991Y-11290174D02*
X13949943Y-11280650D01*
X13949943Y-11280650D02*
X13911848Y-11280650D01*
X13911848Y-11280650D02*
X13892801Y-11290174D01*
X13978515Y-11404460D02*
X13959467Y-11413984D01*
X13959467Y-11413984D02*
X13911848Y-11413984D01*
X13911848Y-11413984D02*
X13892801Y-11404460D01*
X13892801Y-11404460D02*
X13883277Y-11385412D01*
X13883277Y-11385412D02*
X13883277Y-11366365D01*
X13883277Y-11366365D02*
X13892801Y-11347317D01*
X13892801Y-11347317D02*
X13911848Y-11337793D01*
X13911848Y-11337793D02*
X13959467Y-11337793D01*
X13959467Y-11337793D02*
X13978515Y-11328269D01*
X14073753Y-11280650D02*
X14073753Y-11480650D01*
X14073753Y-11290174D02*
X14092801Y-11280650D01*
X14092801Y-11280650D02*
X14130896Y-11280650D01*
X14130896Y-11280650D02*
X14149943Y-11290174D01*
X14149943Y-11290174D02*
X14159467Y-11299698D01*
X14159467Y-11299698D02*
X14168991Y-11318746D01*
X14168991Y-11318746D02*
X14168991Y-11375888D01*
X14168991Y-11375888D02*
X14159467Y-11394936D01*
X14159467Y-11394936D02*
X14149943Y-11404460D01*
X14149943Y-11404460D02*
X14130896Y-11413984D01*
X14130896Y-11413984D02*
X14092801Y-11413984D01*
X14092801Y-11413984D02*
X14073753Y-11404460D01*
X14254705Y-11394936D02*
X14264229Y-11404460D01*
X14264229Y-11404460D02*
X14254705Y-11413984D01*
X14254705Y-11413984D02*
X14245182Y-11404460D01*
X14245182Y-11404460D02*
X14254705Y-11394936D01*
X14254705Y-11394936D02*
X14254705Y-11413984D01*
X14254705Y-11290174D02*
X14264229Y-11299698D01*
X14264229Y-11299698D02*
X14254705Y-11309222D01*
X14254705Y-11309222D02*
X14245182Y-11299698D01*
X14245182Y-11299698D02*
X14254705Y-11290174D01*
X14254705Y-11290174D02*
X14254705Y-11309222D01*
D12*
X12602500Y-11732500D02*
X12622500Y-11752500D01*
X12622500Y-11732500D02*
X12602500Y-11752500D01*
D11*
X12921372Y-11633984D02*
X12940420Y-11633984D01*
X12940420Y-11633984D02*
X12959467Y-11643508D01*
X12959467Y-11643508D02*
X12968991Y-11653031D01*
X12968991Y-11653031D02*
X12978515Y-11672079D01*
X12978515Y-11672079D02*
X12988039Y-11710174D01*
X12988039Y-11710174D02*
X12988039Y-11757793D01*
X12988039Y-11757793D02*
X12978515Y-11795888D01*
X12978515Y-11795888D02*
X12968991Y-11814936D01*
X12968991Y-11814936D02*
X12959467Y-11824460D01*
X12959467Y-11824460D02*
X12940420Y-11833984D01*
X12940420Y-11833984D02*
X12921372Y-11833984D01*
X12921372Y-11833984D02*
X12902324Y-11824460D01*
X12902324Y-11824460D02*
X12892801Y-11814936D01*
X12892801Y-11814936D02*
X12883277Y-11795888D01*
X12883277Y-11795888D02*
X12873753Y-11757793D01*
X12873753Y-11757793D02*
X12873753Y-11710174D01*
X12873753Y-11710174D02*
X12883277Y-11672079D01*
X12883277Y-11672079D02*
X12892801Y-11653031D01*
X12892801Y-11653031D02*
X12902324Y-11643508D01*
X12902324Y-11643508D02*
X12921372Y-11633984D01*
X13073753Y-11814936D02*
X13083277Y-11824460D01*
X13083277Y-11824460D02*
X13073753Y-11833984D01*
X13073753Y-11833984D02*
X13064229Y-11824460D01*
X13064229Y-11824460D02*
X13073753Y-11814936D01*
X13073753Y-11814936D02*
X13073753Y-11833984D01*
X13159467Y-11653031D02*
X13168991Y-11643508D01*
X13168991Y-11643508D02*
X13188039Y-11633984D01*
X13188039Y-11633984D02*
X13235658Y-11633984D01*
X13235658Y-11633984D02*
X13254705Y-11643508D01*
X13254705Y-11643508D02*
X13264229Y-11653031D01*
X13264229Y-11653031D02*
X13273753Y-11672079D01*
X13273753Y-11672079D02*
X13273753Y-11691127D01*
X13273753Y-11691127D02*
X13264229Y-11719698D01*
X13264229Y-11719698D02*
X13149943Y-11833984D01*
X13149943Y-11833984D02*
X13273753Y-11833984D01*
X13397562Y-11633984D02*
X13416610Y-11633984D01*
X13416610Y-11633984D02*
X13435658Y-11643508D01*
X13435658Y-11643508D02*
X13445182Y-11653031D01*
X13445182Y-11653031D02*
X13454705Y-11672079D01*
X13454705Y-11672079D02*
X13464229Y-11710174D01*
X13464229Y-11710174D02*
X13464229Y-11757793D01*
X13464229Y-11757793D02*
X13454705Y-11795888D01*
X13454705Y-11795888D02*
X13445182Y-11814936D01*
X13445182Y-11814936D02*
X13435658Y-11824460D01*
X13435658Y-11824460D02*
X13416610Y-11833984D01*
X13416610Y-11833984D02*
X13397562Y-11833984D01*
X13397562Y-11833984D02*
X13378515Y-11824460D01*
X13378515Y-11824460D02*
X13368991Y-11814936D01*
X13368991Y-11814936D02*
X13359467Y-11795888D01*
X13359467Y-11795888D02*
X13349943Y-11757793D01*
X13349943Y-11757793D02*
X13349943Y-11710174D01*
X13349943Y-11710174D02*
X13359467Y-11672079D01*
X13359467Y-11672079D02*
X13368991Y-11653031D01*
X13368991Y-11653031D02*
X13378515Y-11643508D01*
X13378515Y-11643508D02*
X13397562Y-11633984D01*
X13588039Y-11633984D02*
X13607086Y-11633984D01*
X13607086Y-11633984D02*
X13626134Y-11643508D01*
X13626134Y-11643508D02*
X13635658Y-11653031D01*
X13635658Y-11653031D02*
X13645182Y-11672079D01*
X13645182Y-11672079D02*
X13654705Y-11710174D01*
X13654705Y-11710174D02*
X13654705Y-11757793D01*
X13654705Y-11757793D02*
X13645182Y-11795888D01*
X13645182Y-11795888D02*
X13635658Y-11814936D01*
X13635658Y-11814936D02*
X13626134Y-11824460D01*
X13626134Y-11824460D02*
X13607086Y-11833984D01*
X13607086Y-11833984D02*
X13588039Y-11833984D01*
X13588039Y-11833984D02*
X13568991Y-11824460D01*
X13568991Y-11824460D02*
X13559467Y-11814936D01*
X13559467Y-11814936D02*
X13549943Y-11795888D01*
X13549943Y-11795888D02*
X13540420Y-11757793D01*
X13540420Y-11757793D02*
X13540420Y-11710174D01*
X13540420Y-11710174D02*
X13549943Y-11672079D01*
X13549943Y-11672079D02*
X13559467Y-11653031D01*
X13559467Y-11653031D02*
X13568991Y-11643508D01*
X13568991Y-11643508D02*
X13588039Y-11633984D01*
X13740420Y-11833984D02*
X13740420Y-11700650D01*
X13740420Y-11719698D02*
X13749943Y-11710174D01*
X13749943Y-11710174D02*
X13768991Y-11700650D01*
X13768991Y-11700650D02*
X13797563Y-11700650D01*
X13797563Y-11700650D02*
X13816610Y-11710174D01*
X13816610Y-11710174D02*
X13826134Y-11729222D01*
X13826134Y-11729222D02*
X13826134Y-11833984D01*
X13826134Y-11729222D02*
X13835658Y-11710174D01*
X13835658Y-11710174D02*
X13854705Y-11700650D01*
X13854705Y-11700650D02*
X13883277Y-11700650D01*
X13883277Y-11700650D02*
X13902324Y-11710174D01*
X13902324Y-11710174D02*
X13911848Y-11729222D01*
X13911848Y-11729222D02*
X13911848Y-11833984D01*
X14007086Y-11833984D02*
X14007086Y-11700650D01*
X14007086Y-11719698D02*
X14016610Y-11710174D01*
X14016610Y-11710174D02*
X14035658Y-11700650D01*
X14035658Y-11700650D02*
X14064229Y-11700650D01*
X14064229Y-11700650D02*
X14083277Y-11710174D01*
X14083277Y-11710174D02*
X14092801Y-11729222D01*
X14092801Y-11729222D02*
X14092801Y-11833984D01*
X14092801Y-11729222D02*
X14102324Y-11710174D01*
X14102324Y-11710174D02*
X14121372Y-11700650D01*
X14121372Y-11700650D02*
X14149943Y-11700650D01*
X14149943Y-11700650D02*
X14168991Y-11710174D01*
X14168991Y-11710174D02*
X14178515Y-11729222D01*
X14178515Y-11729222D02*
X14178515Y-11833984D01*
X14568991Y-11624460D02*
X14397563Y-11881603D01*
X14826134Y-11633984D02*
X14845182Y-11633984D01*
X14845182Y-11633984D02*
X14864229Y-11643508D01*
X14864229Y-11643508D02*
X14873753Y-11653031D01*
X14873753Y-11653031D02*
X14883277Y-11672079D01*
X14883277Y-11672079D02*
X14892801Y-11710174D01*
X14892801Y-11710174D02*
X14892801Y-11757793D01*
X14892801Y-11757793D02*
X14883277Y-11795888D01*
X14883277Y-11795888D02*
X14873753Y-11814936D01*
X14873753Y-11814936D02*
X14864229Y-11824460D01*
X14864229Y-11824460D02*
X14845182Y-11833984D01*
X14845182Y-11833984D02*
X14826134Y-11833984D01*
X14826134Y-11833984D02*
X14807086Y-11824460D01*
X14807086Y-11824460D02*
X14797563Y-11814936D01*
X14797563Y-11814936D02*
X14788039Y-11795888D01*
X14788039Y-11795888D02*
X14778515Y-11757793D01*
X14778515Y-11757793D02*
X14778515Y-11710174D01*
X14778515Y-11710174D02*
X14788039Y-11672079D01*
X14788039Y-11672079D02*
X14797563Y-11653031D01*
X14797563Y-11653031D02*
X14807086Y-11643508D01*
X14807086Y-11643508D02*
X14826134Y-11633984D01*
X14978515Y-11814936D02*
X14988039Y-11824460D01*
X14988039Y-11824460D02*
X14978515Y-11833984D01*
X14978515Y-11833984D02*
X14968991Y-11824460D01*
X14968991Y-11824460D02*
X14978515Y-11814936D01*
X14978515Y-11814936D02*
X14978515Y-11833984D01*
X15111848Y-11633984D02*
X15130896Y-11633984D01*
X15130896Y-11633984D02*
X15149944Y-11643508D01*
X15149944Y-11643508D02*
X15159467Y-11653031D01*
X15159467Y-11653031D02*
X15168991Y-11672079D01*
X15168991Y-11672079D02*
X15178515Y-11710174D01*
X15178515Y-11710174D02*
X15178515Y-11757793D01*
X15178515Y-11757793D02*
X15168991Y-11795888D01*
X15168991Y-11795888D02*
X15159467Y-11814936D01*
X15159467Y-11814936D02*
X15149944Y-11824460D01*
X15149944Y-11824460D02*
X15130896Y-11833984D01*
X15130896Y-11833984D02*
X15111848Y-11833984D01*
X15111848Y-11833984D02*
X15092801Y-11824460D01*
X15092801Y-11824460D02*
X15083277Y-11814936D01*
X15083277Y-11814936D02*
X15073753Y-11795888D01*
X15073753Y-11795888D02*
X15064229Y-11757793D01*
X15064229Y-11757793D02*
X15064229Y-11710174D01*
X15064229Y-11710174D02*
X15073753Y-11672079D01*
X15073753Y-11672079D02*
X15083277Y-11653031D01*
X15083277Y-11653031D02*
X15092801Y-11643508D01*
X15092801Y-11643508D02*
X15111848Y-11633984D01*
X15302325Y-11633984D02*
X15321372Y-11633984D01*
X15321372Y-11633984D02*
X15340420Y-11643508D01*
X15340420Y-11643508D02*
X15349944Y-11653031D01*
X15349944Y-11653031D02*
X15359467Y-11672079D01*
X15359467Y-11672079D02*
X15368991Y-11710174D01*
X15368991Y-11710174D02*
X15368991Y-11757793D01*
X15368991Y-11757793D02*
X15359467Y-11795888D01*
X15359467Y-11795888D02*
X15349944Y-11814936D01*
X15349944Y-11814936D02*
X15340420Y-11824460D01*
X15340420Y-11824460D02*
X15321372Y-11833984D01*
X15321372Y-11833984D02*
X15302325Y-11833984D01*
X15302325Y-11833984D02*
X15283277Y-11824460D01*
X15283277Y-11824460D02*
X15273753Y-11814936D01*
X15273753Y-11814936D02*
X15264229Y-11795888D01*
X15264229Y-11795888D02*
X15254706Y-11757793D01*
X15254706Y-11757793D02*
X15254706Y-11710174D01*
X15254706Y-11710174D02*
X15264229Y-11672079D01*
X15264229Y-11672079D02*
X15273753Y-11653031D01*
X15273753Y-11653031D02*
X15283277Y-11643508D01*
X15283277Y-11643508D02*
X15302325Y-11633984D01*
X15435658Y-11633984D02*
X15568991Y-11633984D01*
X15568991Y-11633984D02*
X15483277Y-11833984D01*
X15654706Y-11833984D02*
X15692801Y-11833984D01*
X15692801Y-11833984D02*
X15711848Y-11824460D01*
X15711848Y-11824460D02*
X15721372Y-11814936D01*
X15721372Y-11814936D02*
X15740420Y-11786365D01*
X15740420Y-11786365D02*
X15749944Y-11748269D01*
X15749944Y-11748269D02*
X15749944Y-11672079D01*
X15749944Y-11672079D02*
X15740420Y-11653031D01*
X15740420Y-11653031D02*
X15730896Y-11643508D01*
X15730896Y-11643508D02*
X15711848Y-11633984D01*
X15711848Y-11633984D02*
X15673753Y-11633984D01*
X15673753Y-11633984D02*
X15654706Y-11643508D01*
X15654706Y-11643508D02*
X15645182Y-11653031D01*
X15645182Y-11653031D02*
X15635658Y-11672079D01*
X15635658Y-11672079D02*
X15635658Y-11719698D01*
X15635658Y-11719698D02*
X15645182Y-11738746D01*
X15645182Y-11738746D02*
X15654706Y-11748269D01*
X15654706Y-11748269D02*
X15673753Y-11757793D01*
X15673753Y-11757793D02*
X15711848Y-11757793D01*
X15711848Y-11757793D02*
X15730896Y-11748269D01*
X15730896Y-11748269D02*
X15740420Y-11738746D01*
X15740420Y-11738746D02*
X15749944Y-11719698D01*
X15826134Y-11633984D02*
X15826134Y-11672079D01*
X15902325Y-11633984D02*
X15902325Y-11672079D01*
X16197563Y-11910174D02*
X16188039Y-11900650D01*
X16188039Y-11900650D02*
X16168991Y-11872079D01*
X16168991Y-11872079D02*
X16159468Y-11853031D01*
X16159468Y-11853031D02*
X16149944Y-11824460D01*
X16149944Y-11824460D02*
X16140420Y-11776841D01*
X16140420Y-11776841D02*
X16140420Y-11738746D01*
X16140420Y-11738746D02*
X16149944Y-11691127D01*
X16149944Y-11691127D02*
X16159468Y-11662555D01*
X16159468Y-11662555D02*
X16168991Y-11643508D01*
X16168991Y-11643508D02*
X16188039Y-11614936D01*
X16188039Y-11614936D02*
X16197563Y-11605412D01*
X16254706Y-11633984D02*
X16378515Y-11633984D01*
X16378515Y-11633984D02*
X16311848Y-11710174D01*
X16311848Y-11710174D02*
X16340420Y-11710174D01*
X16340420Y-11710174D02*
X16359468Y-11719698D01*
X16359468Y-11719698D02*
X16368991Y-11729222D01*
X16368991Y-11729222D02*
X16378515Y-11748269D01*
X16378515Y-11748269D02*
X16378515Y-11795888D01*
X16378515Y-11795888D02*
X16368991Y-11814936D01*
X16368991Y-11814936D02*
X16359468Y-11824460D01*
X16359468Y-11824460D02*
X16340420Y-11833984D01*
X16340420Y-11833984D02*
X16283277Y-11833984D01*
X16283277Y-11833984D02*
X16264229Y-11824460D01*
X16264229Y-11824460D02*
X16254706Y-11814936D01*
X16492801Y-11719698D02*
X16473753Y-11710174D01*
X16473753Y-11710174D02*
X16464229Y-11700650D01*
X16464229Y-11700650D02*
X16454706Y-11681603D01*
X16454706Y-11681603D02*
X16454706Y-11672079D01*
X16454706Y-11672079D02*
X16464229Y-11653031D01*
X16464229Y-11653031D02*
X16473753Y-11643508D01*
X16473753Y-11643508D02*
X16492801Y-11633984D01*
X16492801Y-11633984D02*
X16530896Y-11633984D01*
X16530896Y-11633984D02*
X16549944Y-11643508D01*
X16549944Y-11643508D02*
X16559468Y-11653031D01*
X16559468Y-11653031D02*
X16568991Y-11672079D01*
X16568991Y-11672079D02*
X16568991Y-11681603D01*
X16568991Y-11681603D02*
X16559468Y-11700650D01*
X16559468Y-11700650D02*
X16549944Y-11710174D01*
X16549944Y-11710174D02*
X16530896Y-11719698D01*
X16530896Y-11719698D02*
X16492801Y-11719698D01*
X16492801Y-11719698D02*
X16473753Y-11729222D01*
X16473753Y-11729222D02*
X16464229Y-11738746D01*
X16464229Y-11738746D02*
X16454706Y-11757793D01*
X16454706Y-11757793D02*
X16454706Y-11795888D01*
X16454706Y-11795888D02*
X16464229Y-11814936D01*
X16464229Y-11814936D02*
X16473753Y-11824460D01*
X16473753Y-11824460D02*
X16492801Y-11833984D01*
X16492801Y-11833984D02*
X16530896Y-11833984D01*
X16530896Y-11833984D02*
X16549944Y-11824460D01*
X16549944Y-11824460D02*
X16559468Y-11814936D01*
X16559468Y-11814936D02*
X16568991Y-11795888D01*
X16568991Y-11795888D02*
X16568991Y-11757793D01*
X16568991Y-11757793D02*
X16559468Y-11738746D01*
X16559468Y-11738746D02*
X16549944Y-11729222D01*
X16549944Y-11729222D02*
X16530896Y-11719698D01*
X16807087Y-11833984D02*
X16807087Y-11633984D01*
X16892801Y-11833984D02*
X16892801Y-11729222D01*
X16892801Y-11729222D02*
X16883277Y-11710174D01*
X16883277Y-11710174D02*
X16864230Y-11700650D01*
X16864230Y-11700650D02*
X16835658Y-11700650D01*
X16835658Y-11700650D02*
X16816611Y-11710174D01*
X16816611Y-11710174D02*
X16807087Y-11719698D01*
X17016611Y-11833984D02*
X16997563Y-11824460D01*
X16997563Y-11824460D02*
X16988039Y-11814936D01*
X16988039Y-11814936D02*
X16978515Y-11795888D01*
X16978515Y-11795888D02*
X16978515Y-11738746D01*
X16978515Y-11738746D02*
X16988039Y-11719698D01*
X16988039Y-11719698D02*
X16997563Y-11710174D01*
X16997563Y-11710174D02*
X17016611Y-11700650D01*
X17016611Y-11700650D02*
X17045182Y-11700650D01*
X17045182Y-11700650D02*
X17064230Y-11710174D01*
X17064230Y-11710174D02*
X17073753Y-11719698D01*
X17073753Y-11719698D02*
X17083277Y-11738746D01*
X17083277Y-11738746D02*
X17083277Y-11795888D01*
X17083277Y-11795888D02*
X17073753Y-11814936D01*
X17073753Y-11814936D02*
X17064230Y-11824460D01*
X17064230Y-11824460D02*
X17045182Y-11833984D01*
X17045182Y-11833984D02*
X17016611Y-11833984D01*
X17197563Y-11833984D02*
X17178515Y-11824460D01*
X17178515Y-11824460D02*
X17168992Y-11805412D01*
X17168992Y-11805412D02*
X17168992Y-11633984D01*
X17349944Y-11824460D02*
X17330896Y-11833984D01*
X17330896Y-11833984D02*
X17292801Y-11833984D01*
X17292801Y-11833984D02*
X17273753Y-11824460D01*
X17273753Y-11824460D02*
X17264230Y-11805412D01*
X17264230Y-11805412D02*
X17264230Y-11729222D01*
X17264230Y-11729222D02*
X17273753Y-11710174D01*
X17273753Y-11710174D02*
X17292801Y-11700650D01*
X17292801Y-11700650D02*
X17330896Y-11700650D01*
X17330896Y-11700650D02*
X17349944Y-11710174D01*
X17349944Y-11710174D02*
X17359468Y-11729222D01*
X17359468Y-11729222D02*
X17359468Y-11748269D01*
X17359468Y-11748269D02*
X17264230Y-11767317D01*
X17435658Y-11824460D02*
X17454706Y-11833984D01*
X17454706Y-11833984D02*
X17492801Y-11833984D01*
X17492801Y-11833984D02*
X17511849Y-11824460D01*
X17511849Y-11824460D02*
X17521373Y-11805412D01*
X17521373Y-11805412D02*
X17521373Y-11795888D01*
X17521373Y-11795888D02*
X17511849Y-11776841D01*
X17511849Y-11776841D02*
X17492801Y-11767317D01*
X17492801Y-11767317D02*
X17464230Y-11767317D01*
X17464230Y-11767317D02*
X17445182Y-11757793D01*
X17445182Y-11757793D02*
X17435658Y-11738746D01*
X17435658Y-11738746D02*
X17435658Y-11729222D01*
X17435658Y-11729222D02*
X17445182Y-11710174D01*
X17445182Y-11710174D02*
X17464230Y-11700650D01*
X17464230Y-11700650D02*
X17492801Y-11700650D01*
X17492801Y-11700650D02*
X17511849Y-11710174D01*
X17588039Y-11910174D02*
X17597563Y-11900650D01*
X17597563Y-11900650D02*
X17616611Y-11872079D01*
X17616611Y-11872079D02*
X17626134Y-11853031D01*
X17626134Y-11853031D02*
X17635658Y-11824460D01*
X17635658Y-11824460D02*
X17645182Y-11776841D01*
X17645182Y-11776841D02*
X17645182Y-11738746D01*
X17645182Y-11738746D02*
X17635658Y-11691127D01*
X17635658Y-11691127D02*
X17626134Y-11662555D01*
X17626134Y-11662555D02*
X17616611Y-11643508D01*
X17616611Y-11643508D02*
X17597563Y-11614936D01*
X17597563Y-11614936D02*
X17588039Y-11605412D01*
D12*
X12622500Y-12006500D02*
G75*
G02*
X12592500Y-12006500I-15000J0D01*
G01*
X12592500Y-12006500D02*
G75*
G02*
X12622500Y-12006500I15000J0D01*
G01*
D11*
X12921372Y-11897984D02*
X12940420Y-11897984D01*
X12940420Y-11897984D02*
X12959467Y-11907508D01*
X12959467Y-11907508D02*
X12968991Y-11917031D01*
X12968991Y-11917031D02*
X12978515Y-11936079D01*
X12978515Y-11936079D02*
X12988039Y-11974174D01*
X12988039Y-11974174D02*
X12988039Y-12021793D01*
X12988039Y-12021793D02*
X12978515Y-12059888D01*
X12978515Y-12059888D02*
X12968991Y-12078936D01*
X12968991Y-12078936D02*
X12959467Y-12088460D01*
X12959467Y-12088460D02*
X12940420Y-12097984D01*
X12940420Y-12097984D02*
X12921372Y-12097984D01*
X12921372Y-12097984D02*
X12902324Y-12088460D01*
X12902324Y-12088460D02*
X12892801Y-12078936D01*
X12892801Y-12078936D02*
X12883277Y-12059888D01*
X12883277Y-12059888D02*
X12873753Y-12021793D01*
X12873753Y-12021793D02*
X12873753Y-11974174D01*
X12873753Y-11974174D02*
X12883277Y-11936079D01*
X12883277Y-11936079D02*
X12892801Y-11917031D01*
X12892801Y-11917031D02*
X12902324Y-11907508D01*
X12902324Y-11907508D02*
X12921372Y-11897984D01*
X13073753Y-12078936D02*
X13083277Y-12088460D01*
X13083277Y-12088460D02*
X13073753Y-12097984D01*
X13073753Y-12097984D02*
X13064229Y-12088460D01*
X13064229Y-12088460D02*
X13073753Y-12078936D01*
X13073753Y-12078936D02*
X13073753Y-12097984D01*
X13149943Y-11897984D02*
X13273753Y-11897984D01*
X13273753Y-11897984D02*
X13207086Y-11974174D01*
X13207086Y-11974174D02*
X13235658Y-11974174D01*
X13235658Y-11974174D02*
X13254705Y-11983698D01*
X13254705Y-11983698D02*
X13264229Y-11993222D01*
X13264229Y-11993222D02*
X13273753Y-12012269D01*
X13273753Y-12012269D02*
X13273753Y-12059888D01*
X13273753Y-12059888D02*
X13264229Y-12078936D01*
X13264229Y-12078936D02*
X13254705Y-12088460D01*
X13254705Y-12088460D02*
X13235658Y-12097984D01*
X13235658Y-12097984D02*
X13178515Y-12097984D01*
X13178515Y-12097984D02*
X13159467Y-12088460D01*
X13159467Y-12088460D02*
X13149943Y-12078936D01*
X13397562Y-11897984D02*
X13416610Y-11897984D01*
X13416610Y-11897984D02*
X13435658Y-11907508D01*
X13435658Y-11907508D02*
X13445182Y-11917031D01*
X13445182Y-11917031D02*
X13454705Y-11936079D01*
X13454705Y-11936079D02*
X13464229Y-11974174D01*
X13464229Y-11974174D02*
X13464229Y-12021793D01*
X13464229Y-12021793D02*
X13454705Y-12059888D01*
X13454705Y-12059888D02*
X13445182Y-12078936D01*
X13445182Y-12078936D02*
X13435658Y-12088460D01*
X13435658Y-12088460D02*
X13416610Y-12097984D01*
X13416610Y-12097984D02*
X13397562Y-12097984D01*
X13397562Y-12097984D02*
X13378515Y-12088460D01*
X13378515Y-12088460D02*
X13368991Y-12078936D01*
X13368991Y-12078936D02*
X13359467Y-12059888D01*
X13359467Y-12059888D02*
X13349943Y-12021793D01*
X13349943Y-12021793D02*
X13349943Y-11974174D01*
X13349943Y-11974174D02*
X13359467Y-11936079D01*
X13359467Y-11936079D02*
X13368991Y-11917031D01*
X13368991Y-11917031D02*
X13378515Y-11907508D01*
X13378515Y-11907508D02*
X13397562Y-11897984D01*
X13588039Y-11897984D02*
X13607086Y-11897984D01*
X13607086Y-11897984D02*
X13626134Y-11907508D01*
X13626134Y-11907508D02*
X13635658Y-11917031D01*
X13635658Y-11917031D02*
X13645182Y-11936079D01*
X13645182Y-11936079D02*
X13654705Y-11974174D01*
X13654705Y-11974174D02*
X13654705Y-12021793D01*
X13654705Y-12021793D02*
X13645182Y-12059888D01*
X13645182Y-12059888D02*
X13635658Y-12078936D01*
X13635658Y-12078936D02*
X13626134Y-12088460D01*
X13626134Y-12088460D02*
X13607086Y-12097984D01*
X13607086Y-12097984D02*
X13588039Y-12097984D01*
X13588039Y-12097984D02*
X13568991Y-12088460D01*
X13568991Y-12088460D02*
X13559467Y-12078936D01*
X13559467Y-12078936D02*
X13549943Y-12059888D01*
X13549943Y-12059888D02*
X13540420Y-12021793D01*
X13540420Y-12021793D02*
X13540420Y-11974174D01*
X13540420Y-11974174D02*
X13549943Y-11936079D01*
X13549943Y-11936079D02*
X13559467Y-11917031D01*
X13559467Y-11917031D02*
X13568991Y-11907508D01*
X13568991Y-11907508D02*
X13588039Y-11897984D01*
X13740420Y-12097984D02*
X13740420Y-11964650D01*
X13740420Y-11983698D02*
X13749943Y-11974174D01*
X13749943Y-11974174D02*
X13768991Y-11964650D01*
X13768991Y-11964650D02*
X13797563Y-11964650D01*
X13797563Y-11964650D02*
X13816610Y-11974174D01*
X13816610Y-11974174D02*
X13826134Y-11993222D01*
X13826134Y-11993222D02*
X13826134Y-12097984D01*
X13826134Y-11993222D02*
X13835658Y-11974174D01*
X13835658Y-11974174D02*
X13854705Y-11964650D01*
X13854705Y-11964650D02*
X13883277Y-11964650D01*
X13883277Y-11964650D02*
X13902324Y-11974174D01*
X13902324Y-11974174D02*
X13911848Y-11993222D01*
X13911848Y-11993222D02*
X13911848Y-12097984D01*
X14007086Y-12097984D02*
X14007086Y-11964650D01*
X14007086Y-11983698D02*
X14016610Y-11974174D01*
X14016610Y-11974174D02*
X14035658Y-11964650D01*
X14035658Y-11964650D02*
X14064229Y-11964650D01*
X14064229Y-11964650D02*
X14083277Y-11974174D01*
X14083277Y-11974174D02*
X14092801Y-11993222D01*
X14092801Y-11993222D02*
X14092801Y-12097984D01*
X14092801Y-11993222D02*
X14102324Y-11974174D01*
X14102324Y-11974174D02*
X14121372Y-11964650D01*
X14121372Y-11964650D02*
X14149943Y-11964650D01*
X14149943Y-11964650D02*
X14168991Y-11974174D01*
X14168991Y-11974174D02*
X14178515Y-11993222D01*
X14178515Y-11993222D02*
X14178515Y-12097984D01*
X14568991Y-11888460D02*
X14397563Y-12145603D01*
X14826134Y-11897984D02*
X14845182Y-11897984D01*
X14845182Y-11897984D02*
X14864229Y-11907508D01*
X14864229Y-11907508D02*
X14873753Y-11917031D01*
X14873753Y-11917031D02*
X14883277Y-11936079D01*
X14883277Y-11936079D02*
X14892801Y-11974174D01*
X14892801Y-11974174D02*
X14892801Y-12021793D01*
X14892801Y-12021793D02*
X14883277Y-12059888D01*
X14883277Y-12059888D02*
X14873753Y-12078936D01*
X14873753Y-12078936D02*
X14864229Y-12088460D01*
X14864229Y-12088460D02*
X14845182Y-12097984D01*
X14845182Y-12097984D02*
X14826134Y-12097984D01*
X14826134Y-12097984D02*
X14807086Y-12088460D01*
X14807086Y-12088460D02*
X14797563Y-12078936D01*
X14797563Y-12078936D02*
X14788039Y-12059888D01*
X14788039Y-12059888D02*
X14778515Y-12021793D01*
X14778515Y-12021793D02*
X14778515Y-11974174D01*
X14778515Y-11974174D02*
X14788039Y-11936079D01*
X14788039Y-11936079D02*
X14797563Y-11917031D01*
X14797563Y-11917031D02*
X14807086Y-11907508D01*
X14807086Y-11907508D02*
X14826134Y-11897984D01*
X14978515Y-12078936D02*
X14988039Y-12088460D01*
X14988039Y-12088460D02*
X14978515Y-12097984D01*
X14978515Y-12097984D02*
X14968991Y-12088460D01*
X14968991Y-12088460D02*
X14978515Y-12078936D01*
X14978515Y-12078936D02*
X14978515Y-12097984D01*
X15111848Y-11897984D02*
X15130896Y-11897984D01*
X15130896Y-11897984D02*
X15149944Y-11907508D01*
X15149944Y-11907508D02*
X15159467Y-11917031D01*
X15159467Y-11917031D02*
X15168991Y-11936079D01*
X15168991Y-11936079D02*
X15178515Y-11974174D01*
X15178515Y-11974174D02*
X15178515Y-12021793D01*
X15178515Y-12021793D02*
X15168991Y-12059888D01*
X15168991Y-12059888D02*
X15159467Y-12078936D01*
X15159467Y-12078936D02*
X15149944Y-12088460D01*
X15149944Y-12088460D02*
X15130896Y-12097984D01*
X15130896Y-12097984D02*
X15111848Y-12097984D01*
X15111848Y-12097984D02*
X15092801Y-12088460D01*
X15092801Y-12088460D02*
X15083277Y-12078936D01*
X15083277Y-12078936D02*
X15073753Y-12059888D01*
X15073753Y-12059888D02*
X15064229Y-12021793D01*
X15064229Y-12021793D02*
X15064229Y-11974174D01*
X15064229Y-11974174D02*
X15073753Y-11936079D01*
X15073753Y-11936079D02*
X15083277Y-11917031D01*
X15083277Y-11917031D02*
X15092801Y-11907508D01*
X15092801Y-11907508D02*
X15111848Y-11897984D01*
X15368991Y-12097984D02*
X15254706Y-12097984D01*
X15311848Y-12097984D02*
X15311848Y-11897984D01*
X15311848Y-11897984D02*
X15292801Y-11926555D01*
X15292801Y-11926555D02*
X15273753Y-11945603D01*
X15273753Y-11945603D02*
X15254706Y-11955127D01*
X15559467Y-12097984D02*
X15445182Y-12097984D01*
X15502325Y-12097984D02*
X15502325Y-11897984D01*
X15502325Y-11897984D02*
X15483277Y-11926555D01*
X15483277Y-11926555D02*
X15464229Y-11945603D01*
X15464229Y-11945603D02*
X15445182Y-11955127D01*
X15673753Y-11983698D02*
X15654706Y-11974174D01*
X15654706Y-11974174D02*
X15645182Y-11964650D01*
X15645182Y-11964650D02*
X15635658Y-11945603D01*
X15635658Y-11945603D02*
X15635658Y-11936079D01*
X15635658Y-11936079D02*
X15645182Y-11917031D01*
X15645182Y-11917031D02*
X15654706Y-11907508D01*
X15654706Y-11907508D02*
X15673753Y-11897984D01*
X15673753Y-11897984D02*
X15711848Y-11897984D01*
X15711848Y-11897984D02*
X15730896Y-11907508D01*
X15730896Y-11907508D02*
X15740420Y-11917031D01*
X15740420Y-11917031D02*
X15749944Y-11936079D01*
X15749944Y-11936079D02*
X15749944Y-11945603D01*
X15749944Y-11945603D02*
X15740420Y-11964650D01*
X15740420Y-11964650D02*
X15730896Y-11974174D01*
X15730896Y-11974174D02*
X15711848Y-11983698D01*
X15711848Y-11983698D02*
X15673753Y-11983698D01*
X15673753Y-11983698D02*
X15654706Y-11993222D01*
X15654706Y-11993222D02*
X15645182Y-12002746D01*
X15645182Y-12002746D02*
X15635658Y-12021793D01*
X15635658Y-12021793D02*
X15635658Y-12059888D01*
X15635658Y-12059888D02*
X15645182Y-12078936D01*
X15645182Y-12078936D02*
X15654706Y-12088460D01*
X15654706Y-12088460D02*
X15673753Y-12097984D01*
X15673753Y-12097984D02*
X15711848Y-12097984D01*
X15711848Y-12097984D02*
X15730896Y-12088460D01*
X15730896Y-12088460D02*
X15740420Y-12078936D01*
X15740420Y-12078936D02*
X15749944Y-12059888D01*
X15749944Y-12059888D02*
X15749944Y-12021793D01*
X15749944Y-12021793D02*
X15740420Y-12002746D01*
X15740420Y-12002746D02*
X15730896Y-11993222D01*
X15730896Y-11993222D02*
X15711848Y-11983698D01*
X15826134Y-11897984D02*
X15826134Y-11936079D01*
X15902325Y-11897984D02*
X15902325Y-11936079D01*
X16197563Y-12174174D02*
X16188039Y-12164650D01*
X16188039Y-12164650D02*
X16168991Y-12136079D01*
X16168991Y-12136079D02*
X16159468Y-12117031D01*
X16159468Y-12117031D02*
X16149944Y-12088460D01*
X16149944Y-12088460D02*
X16140420Y-12040841D01*
X16140420Y-12040841D02*
X16140420Y-12002746D01*
X16140420Y-12002746D02*
X16149944Y-11955127D01*
X16149944Y-11955127D02*
X16159468Y-11926555D01*
X16159468Y-11926555D02*
X16168991Y-11907508D01*
X16168991Y-11907508D02*
X16188039Y-11878936D01*
X16188039Y-11878936D02*
X16197563Y-11869412D01*
X16378515Y-12097984D02*
X16264229Y-12097984D01*
X16321372Y-12097984D02*
X16321372Y-11897984D01*
X16321372Y-11897984D02*
X16302325Y-11926555D01*
X16302325Y-11926555D02*
X16283277Y-11945603D01*
X16283277Y-11945603D02*
X16264229Y-11955127D01*
X16616610Y-12097984D02*
X16616610Y-11897984D01*
X16702325Y-12097984D02*
X16702325Y-11993222D01*
X16702325Y-11993222D02*
X16692801Y-11974174D01*
X16692801Y-11974174D02*
X16673753Y-11964650D01*
X16673753Y-11964650D02*
X16645182Y-11964650D01*
X16645182Y-11964650D02*
X16626134Y-11974174D01*
X16626134Y-11974174D02*
X16616610Y-11983698D01*
X16826134Y-12097984D02*
X16807087Y-12088460D01*
X16807087Y-12088460D02*
X16797563Y-12078936D01*
X16797563Y-12078936D02*
X16788039Y-12059888D01*
X16788039Y-12059888D02*
X16788039Y-12002746D01*
X16788039Y-12002746D02*
X16797563Y-11983698D01*
X16797563Y-11983698D02*
X16807087Y-11974174D01*
X16807087Y-11974174D02*
X16826134Y-11964650D01*
X16826134Y-11964650D02*
X16854706Y-11964650D01*
X16854706Y-11964650D02*
X16873753Y-11974174D01*
X16873753Y-11974174D02*
X16883277Y-11983698D01*
X16883277Y-11983698D02*
X16892801Y-12002746D01*
X16892801Y-12002746D02*
X16892801Y-12059888D01*
X16892801Y-12059888D02*
X16883277Y-12078936D01*
X16883277Y-12078936D02*
X16873753Y-12088460D01*
X16873753Y-12088460D02*
X16854706Y-12097984D01*
X16854706Y-12097984D02*
X16826134Y-12097984D01*
X17007087Y-12097984D02*
X16988039Y-12088460D01*
X16988039Y-12088460D02*
X16978515Y-12069412D01*
X16978515Y-12069412D02*
X16978515Y-11897984D01*
X17159468Y-12088460D02*
X17140420Y-12097984D01*
X17140420Y-12097984D02*
X17102325Y-12097984D01*
X17102325Y-12097984D02*
X17083277Y-12088460D01*
X17083277Y-12088460D02*
X17073753Y-12069412D01*
X17073753Y-12069412D02*
X17073753Y-11993222D01*
X17073753Y-11993222D02*
X17083277Y-11974174D01*
X17083277Y-11974174D02*
X17102325Y-11964650D01*
X17102325Y-11964650D02*
X17140420Y-11964650D01*
X17140420Y-11964650D02*
X17159468Y-11974174D01*
X17159468Y-11974174D02*
X17168992Y-11993222D01*
X17168992Y-11993222D02*
X17168992Y-12012269D01*
X17168992Y-12012269D02*
X17073753Y-12031317D01*
X17235658Y-12174174D02*
X17245182Y-12164650D01*
X17245182Y-12164650D02*
X17264230Y-12136079D01*
X17264230Y-12136079D02*
X17273753Y-12117031D01*
X17273753Y-12117031D02*
X17283277Y-12088460D01*
X17283277Y-12088460D02*
X17292801Y-12040841D01*
X17292801Y-12040841D02*
X17292801Y-12002746D01*
X17292801Y-12002746D02*
X17283277Y-11955127D01*
X17283277Y-11955127D02*
X17273753Y-11926555D01*
X17273753Y-11926555D02*
X17264230Y-11907508D01*
X17264230Y-11907508D02*
X17245182Y-11878936D01*
X17245182Y-11878936D02*
X17235658Y-11869412D01*
D12*
X12592500Y-12240500D02*
X12592500Y-12300500D01*
X12562500Y-12270500D02*
X12622500Y-12270500D01*
D11*
X12921372Y-12161984D02*
X12940420Y-12161984D01*
X12940420Y-12161984D02*
X12959467Y-12171508D01*
X12959467Y-12171508D02*
X12968991Y-12181031D01*
X12968991Y-12181031D02*
X12978515Y-12200079D01*
X12978515Y-12200079D02*
X12988039Y-12238174D01*
X12988039Y-12238174D02*
X12988039Y-12285793D01*
X12988039Y-12285793D02*
X12978515Y-12323888D01*
X12978515Y-12323888D02*
X12968991Y-12342936D01*
X12968991Y-12342936D02*
X12959467Y-12352460D01*
X12959467Y-12352460D02*
X12940420Y-12361984D01*
X12940420Y-12361984D02*
X12921372Y-12361984D01*
X12921372Y-12361984D02*
X12902324Y-12352460D01*
X12902324Y-12352460D02*
X12892801Y-12342936D01*
X12892801Y-12342936D02*
X12883277Y-12323888D01*
X12883277Y-12323888D02*
X12873753Y-12285793D01*
X12873753Y-12285793D02*
X12873753Y-12238174D01*
X12873753Y-12238174D02*
X12883277Y-12200079D01*
X12883277Y-12200079D02*
X12892801Y-12181031D01*
X12892801Y-12181031D02*
X12902324Y-12171508D01*
X12902324Y-12171508D02*
X12921372Y-12161984D01*
X13073753Y-12342936D02*
X13083277Y-12352460D01*
X13083277Y-12352460D02*
X13073753Y-12361984D01*
X13073753Y-12361984D02*
X13064229Y-12352460D01*
X13064229Y-12352460D02*
X13073753Y-12342936D01*
X13073753Y-12342936D02*
X13073753Y-12361984D01*
X13254705Y-12161984D02*
X13216610Y-12161984D01*
X13216610Y-12161984D02*
X13197562Y-12171508D01*
X13197562Y-12171508D02*
X13188039Y-12181031D01*
X13188039Y-12181031D02*
X13168991Y-12209603D01*
X13168991Y-12209603D02*
X13159467Y-12247698D01*
X13159467Y-12247698D02*
X13159467Y-12323888D01*
X13159467Y-12323888D02*
X13168991Y-12342936D01*
X13168991Y-12342936D02*
X13178515Y-12352460D01*
X13178515Y-12352460D02*
X13197562Y-12361984D01*
X13197562Y-12361984D02*
X13235658Y-12361984D01*
X13235658Y-12361984D02*
X13254705Y-12352460D01*
X13254705Y-12352460D02*
X13264229Y-12342936D01*
X13264229Y-12342936D02*
X13273753Y-12323888D01*
X13273753Y-12323888D02*
X13273753Y-12276269D01*
X13273753Y-12276269D02*
X13264229Y-12257222D01*
X13264229Y-12257222D02*
X13254705Y-12247698D01*
X13254705Y-12247698D02*
X13235658Y-12238174D01*
X13235658Y-12238174D02*
X13197562Y-12238174D01*
X13197562Y-12238174D02*
X13178515Y-12247698D01*
X13178515Y-12247698D02*
X13168991Y-12257222D01*
X13168991Y-12257222D02*
X13159467Y-12276269D01*
X13397562Y-12161984D02*
X13416610Y-12161984D01*
X13416610Y-12161984D02*
X13435658Y-12171508D01*
X13435658Y-12171508D02*
X13445182Y-12181031D01*
X13445182Y-12181031D02*
X13454705Y-12200079D01*
X13454705Y-12200079D02*
X13464229Y-12238174D01*
X13464229Y-12238174D02*
X13464229Y-12285793D01*
X13464229Y-12285793D02*
X13454705Y-12323888D01*
X13454705Y-12323888D02*
X13445182Y-12342936D01*
X13445182Y-12342936D02*
X13435658Y-12352460D01*
X13435658Y-12352460D02*
X13416610Y-12361984D01*
X13416610Y-12361984D02*
X13397562Y-12361984D01*
X13397562Y-12361984D02*
X13378515Y-12352460D01*
X13378515Y-12352460D02*
X13368991Y-12342936D01*
X13368991Y-12342936D02*
X13359467Y-12323888D01*
X13359467Y-12323888D02*
X13349943Y-12285793D01*
X13349943Y-12285793D02*
X13349943Y-12238174D01*
X13349943Y-12238174D02*
X13359467Y-12200079D01*
X13359467Y-12200079D02*
X13368991Y-12181031D01*
X13368991Y-12181031D02*
X13378515Y-12171508D01*
X13378515Y-12171508D02*
X13397562Y-12161984D01*
X13588039Y-12161984D02*
X13607086Y-12161984D01*
X13607086Y-12161984D02*
X13626134Y-12171508D01*
X13626134Y-12171508D02*
X13635658Y-12181031D01*
X13635658Y-12181031D02*
X13645182Y-12200079D01*
X13645182Y-12200079D02*
X13654705Y-12238174D01*
X13654705Y-12238174D02*
X13654705Y-12285793D01*
X13654705Y-12285793D02*
X13645182Y-12323888D01*
X13645182Y-12323888D02*
X13635658Y-12342936D01*
X13635658Y-12342936D02*
X13626134Y-12352460D01*
X13626134Y-12352460D02*
X13607086Y-12361984D01*
X13607086Y-12361984D02*
X13588039Y-12361984D01*
X13588039Y-12361984D02*
X13568991Y-12352460D01*
X13568991Y-12352460D02*
X13559467Y-12342936D01*
X13559467Y-12342936D02*
X13549943Y-12323888D01*
X13549943Y-12323888D02*
X13540420Y-12285793D01*
X13540420Y-12285793D02*
X13540420Y-12238174D01*
X13540420Y-12238174D02*
X13549943Y-12200079D01*
X13549943Y-12200079D02*
X13559467Y-12181031D01*
X13559467Y-12181031D02*
X13568991Y-12171508D01*
X13568991Y-12171508D02*
X13588039Y-12161984D01*
X13740420Y-12361984D02*
X13740420Y-12228650D01*
X13740420Y-12247698D02*
X13749943Y-12238174D01*
X13749943Y-12238174D02*
X13768991Y-12228650D01*
X13768991Y-12228650D02*
X13797563Y-12228650D01*
X13797563Y-12228650D02*
X13816610Y-12238174D01*
X13816610Y-12238174D02*
X13826134Y-12257222D01*
X13826134Y-12257222D02*
X13826134Y-12361984D01*
X13826134Y-12257222D02*
X13835658Y-12238174D01*
X13835658Y-12238174D02*
X13854705Y-12228650D01*
X13854705Y-12228650D02*
X13883277Y-12228650D01*
X13883277Y-12228650D02*
X13902324Y-12238174D01*
X13902324Y-12238174D02*
X13911848Y-12257222D01*
X13911848Y-12257222D02*
X13911848Y-12361984D01*
X14007086Y-12361984D02*
X14007086Y-12228650D01*
X14007086Y-12247698D02*
X14016610Y-12238174D01*
X14016610Y-12238174D02*
X14035658Y-12228650D01*
X14035658Y-12228650D02*
X14064229Y-12228650D01*
X14064229Y-12228650D02*
X14083277Y-12238174D01*
X14083277Y-12238174D02*
X14092801Y-12257222D01*
X14092801Y-12257222D02*
X14092801Y-12361984D01*
X14092801Y-12257222D02*
X14102324Y-12238174D01*
X14102324Y-12238174D02*
X14121372Y-12228650D01*
X14121372Y-12228650D02*
X14149943Y-12228650D01*
X14149943Y-12228650D02*
X14168991Y-12238174D01*
X14168991Y-12238174D02*
X14178515Y-12257222D01*
X14178515Y-12257222D02*
X14178515Y-12361984D01*
X14568991Y-12152460D02*
X14397563Y-12409603D01*
X14826134Y-12161984D02*
X14845182Y-12161984D01*
X14845182Y-12161984D02*
X14864229Y-12171508D01*
X14864229Y-12171508D02*
X14873753Y-12181031D01*
X14873753Y-12181031D02*
X14883277Y-12200079D01*
X14883277Y-12200079D02*
X14892801Y-12238174D01*
X14892801Y-12238174D02*
X14892801Y-12285793D01*
X14892801Y-12285793D02*
X14883277Y-12323888D01*
X14883277Y-12323888D02*
X14873753Y-12342936D01*
X14873753Y-12342936D02*
X14864229Y-12352460D01*
X14864229Y-12352460D02*
X14845182Y-12361984D01*
X14845182Y-12361984D02*
X14826134Y-12361984D01*
X14826134Y-12361984D02*
X14807086Y-12352460D01*
X14807086Y-12352460D02*
X14797563Y-12342936D01*
X14797563Y-12342936D02*
X14788039Y-12323888D01*
X14788039Y-12323888D02*
X14778515Y-12285793D01*
X14778515Y-12285793D02*
X14778515Y-12238174D01*
X14778515Y-12238174D02*
X14788039Y-12200079D01*
X14788039Y-12200079D02*
X14797563Y-12181031D01*
X14797563Y-12181031D02*
X14807086Y-12171508D01*
X14807086Y-12171508D02*
X14826134Y-12161984D01*
X14978515Y-12342936D02*
X14988039Y-12352460D01*
X14988039Y-12352460D02*
X14978515Y-12361984D01*
X14978515Y-12361984D02*
X14968991Y-12352460D01*
X14968991Y-12352460D02*
X14978515Y-12342936D01*
X14978515Y-12342936D02*
X14978515Y-12361984D01*
X15111848Y-12161984D02*
X15130896Y-12161984D01*
X15130896Y-12161984D02*
X15149944Y-12171508D01*
X15149944Y-12171508D02*
X15159467Y-12181031D01*
X15159467Y-12181031D02*
X15168991Y-12200079D01*
X15168991Y-12200079D02*
X15178515Y-12238174D01*
X15178515Y-12238174D02*
X15178515Y-12285793D01*
X15178515Y-12285793D02*
X15168991Y-12323888D01*
X15168991Y-12323888D02*
X15159467Y-12342936D01*
X15159467Y-12342936D02*
X15149944Y-12352460D01*
X15149944Y-12352460D02*
X15130896Y-12361984D01*
X15130896Y-12361984D02*
X15111848Y-12361984D01*
X15111848Y-12361984D02*
X15092801Y-12352460D01*
X15092801Y-12352460D02*
X15083277Y-12342936D01*
X15083277Y-12342936D02*
X15073753Y-12323888D01*
X15073753Y-12323888D02*
X15064229Y-12285793D01*
X15064229Y-12285793D02*
X15064229Y-12238174D01*
X15064229Y-12238174D02*
X15073753Y-12200079D01*
X15073753Y-12200079D02*
X15083277Y-12181031D01*
X15083277Y-12181031D02*
X15092801Y-12171508D01*
X15092801Y-12171508D02*
X15111848Y-12161984D01*
X15254706Y-12181031D02*
X15264229Y-12171508D01*
X15264229Y-12171508D02*
X15283277Y-12161984D01*
X15283277Y-12161984D02*
X15330896Y-12161984D01*
X15330896Y-12161984D02*
X15349944Y-12171508D01*
X15349944Y-12171508D02*
X15359467Y-12181031D01*
X15359467Y-12181031D02*
X15368991Y-12200079D01*
X15368991Y-12200079D02*
X15368991Y-12219127D01*
X15368991Y-12219127D02*
X15359467Y-12247698D01*
X15359467Y-12247698D02*
X15245182Y-12361984D01*
X15245182Y-12361984D02*
X15368991Y-12361984D01*
X15435658Y-12161984D02*
X15559467Y-12161984D01*
X15559467Y-12161984D02*
X15492801Y-12238174D01*
X15492801Y-12238174D02*
X15521372Y-12238174D01*
X15521372Y-12238174D02*
X15540420Y-12247698D01*
X15540420Y-12247698D02*
X15549944Y-12257222D01*
X15549944Y-12257222D02*
X15559467Y-12276269D01*
X15559467Y-12276269D02*
X15559467Y-12323888D01*
X15559467Y-12323888D02*
X15549944Y-12342936D01*
X15549944Y-12342936D02*
X15540420Y-12352460D01*
X15540420Y-12352460D02*
X15521372Y-12361984D01*
X15521372Y-12361984D02*
X15464229Y-12361984D01*
X15464229Y-12361984D02*
X15445182Y-12352460D01*
X15445182Y-12352460D02*
X15435658Y-12342936D01*
X15730896Y-12161984D02*
X15692801Y-12161984D01*
X15692801Y-12161984D02*
X15673753Y-12171508D01*
X15673753Y-12171508D02*
X15664229Y-12181031D01*
X15664229Y-12181031D02*
X15645182Y-12209603D01*
X15645182Y-12209603D02*
X15635658Y-12247698D01*
X15635658Y-12247698D02*
X15635658Y-12323888D01*
X15635658Y-12323888D02*
X15645182Y-12342936D01*
X15645182Y-12342936D02*
X15654706Y-12352460D01*
X15654706Y-12352460D02*
X15673753Y-12361984D01*
X15673753Y-12361984D02*
X15711848Y-12361984D01*
X15711848Y-12361984D02*
X15730896Y-12352460D01*
X15730896Y-12352460D02*
X15740420Y-12342936D01*
X15740420Y-12342936D02*
X15749944Y-12323888D01*
X15749944Y-12323888D02*
X15749944Y-12276269D01*
X15749944Y-12276269D02*
X15740420Y-12257222D01*
X15740420Y-12257222D02*
X15730896Y-12247698D01*
X15730896Y-12247698D02*
X15711848Y-12238174D01*
X15711848Y-12238174D02*
X15673753Y-12238174D01*
X15673753Y-12238174D02*
X15654706Y-12247698D01*
X15654706Y-12247698D02*
X15645182Y-12257222D01*
X15645182Y-12257222D02*
X15635658Y-12276269D01*
X15826134Y-12161984D02*
X15826134Y-12200079D01*
X15902325Y-12161984D02*
X15902325Y-12200079D01*
X16197563Y-12438174D02*
X16188039Y-12428650D01*
X16188039Y-12428650D02*
X16168991Y-12400079D01*
X16168991Y-12400079D02*
X16159468Y-12381031D01*
X16159468Y-12381031D02*
X16149944Y-12352460D01*
X16149944Y-12352460D02*
X16140420Y-12304841D01*
X16140420Y-12304841D02*
X16140420Y-12266746D01*
X16140420Y-12266746D02*
X16149944Y-12219127D01*
X16149944Y-12219127D02*
X16159468Y-12190555D01*
X16159468Y-12190555D02*
X16168991Y-12171508D01*
X16168991Y-12171508D02*
X16188039Y-12142936D01*
X16188039Y-12142936D02*
X16197563Y-12133412D01*
X16311848Y-12161984D02*
X16330896Y-12161984D01*
X16330896Y-12161984D02*
X16349944Y-12171508D01*
X16349944Y-12171508D02*
X16359468Y-12181031D01*
X16359468Y-12181031D02*
X16368991Y-12200079D01*
X16368991Y-12200079D02*
X16378515Y-12238174D01*
X16378515Y-12238174D02*
X16378515Y-12285793D01*
X16378515Y-12285793D02*
X16368991Y-12323888D01*
X16368991Y-12323888D02*
X16359468Y-12342936D01*
X16359468Y-12342936D02*
X16349944Y-12352460D01*
X16349944Y-12352460D02*
X16330896Y-12361984D01*
X16330896Y-12361984D02*
X16311848Y-12361984D01*
X16311848Y-12361984D02*
X16292801Y-12352460D01*
X16292801Y-12352460D02*
X16283277Y-12342936D01*
X16283277Y-12342936D02*
X16273753Y-12323888D01*
X16273753Y-12323888D02*
X16264229Y-12285793D01*
X16264229Y-12285793D02*
X16264229Y-12238174D01*
X16264229Y-12238174D02*
X16273753Y-12200079D01*
X16273753Y-12200079D02*
X16283277Y-12181031D01*
X16283277Y-12181031D02*
X16292801Y-12171508D01*
X16292801Y-12171508D02*
X16311848Y-12161984D01*
X16616610Y-12361984D02*
X16616610Y-12161984D01*
X16702325Y-12361984D02*
X16702325Y-12257222D01*
X16702325Y-12257222D02*
X16692801Y-12238174D01*
X16692801Y-12238174D02*
X16673753Y-12228650D01*
X16673753Y-12228650D02*
X16645182Y-12228650D01*
X16645182Y-12228650D02*
X16626134Y-12238174D01*
X16626134Y-12238174D02*
X16616610Y-12247698D01*
X16826134Y-12361984D02*
X16807087Y-12352460D01*
X16807087Y-12352460D02*
X16797563Y-12342936D01*
X16797563Y-12342936D02*
X16788039Y-12323888D01*
X16788039Y-12323888D02*
X16788039Y-12266746D01*
X16788039Y-12266746D02*
X16797563Y-12247698D01*
X16797563Y-12247698D02*
X16807087Y-12238174D01*
X16807087Y-12238174D02*
X16826134Y-12228650D01*
X16826134Y-12228650D02*
X16854706Y-12228650D01*
X16854706Y-12228650D02*
X16873753Y-12238174D01*
X16873753Y-12238174D02*
X16883277Y-12247698D01*
X16883277Y-12247698D02*
X16892801Y-12266746D01*
X16892801Y-12266746D02*
X16892801Y-12323888D01*
X16892801Y-12323888D02*
X16883277Y-12342936D01*
X16883277Y-12342936D02*
X16873753Y-12352460D01*
X16873753Y-12352460D02*
X16854706Y-12361984D01*
X16854706Y-12361984D02*
X16826134Y-12361984D01*
X17007087Y-12361984D02*
X16988039Y-12352460D01*
X16988039Y-12352460D02*
X16978515Y-12333412D01*
X16978515Y-12333412D02*
X16978515Y-12161984D01*
X17159468Y-12352460D02*
X17140420Y-12361984D01*
X17140420Y-12361984D02*
X17102325Y-12361984D01*
X17102325Y-12361984D02*
X17083277Y-12352460D01*
X17083277Y-12352460D02*
X17073753Y-12333412D01*
X17073753Y-12333412D02*
X17073753Y-12257222D01*
X17073753Y-12257222D02*
X17083277Y-12238174D01*
X17083277Y-12238174D02*
X17102325Y-12228650D01*
X17102325Y-12228650D02*
X17140420Y-12228650D01*
X17140420Y-12228650D02*
X17159468Y-12238174D01*
X17159468Y-12238174D02*
X17168992Y-12257222D01*
X17168992Y-12257222D02*
X17168992Y-12276269D01*
X17168992Y-12276269D02*
X17073753Y-12295317D01*
X17245182Y-12352460D02*
X17264230Y-12361984D01*
X17264230Y-12361984D02*
X17302325Y-12361984D01*
X17302325Y-12361984D02*
X17321373Y-12352460D01*
X17321373Y-12352460D02*
X17330896Y-12333412D01*
X17330896Y-12333412D02*
X17330896Y-12323888D01*
X17330896Y-12323888D02*
X17321373Y-12304841D01*
X17321373Y-12304841D02*
X17302325Y-12295317D01*
X17302325Y-12295317D02*
X17273753Y-12295317D01*
X17273753Y-12295317D02*
X17254706Y-12285793D01*
X17254706Y-12285793D02*
X17245182Y-12266746D01*
X17245182Y-12266746D02*
X17245182Y-12257222D01*
X17245182Y-12257222D02*
X17254706Y-12238174D01*
X17254706Y-12238174D02*
X17273753Y-12228650D01*
X17273753Y-12228650D02*
X17302325Y-12228650D01*
X17302325Y-12228650D02*
X17321373Y-12238174D01*
X17568992Y-12285793D02*
X17721373Y-12285793D01*
X17645182Y-12361984D02*
X17645182Y-12209603D01*
X18054706Y-12228650D02*
X18054706Y-12361984D01*
X18007087Y-12152460D02*
X17959468Y-12295317D01*
X17959468Y-12295317D02*
X18083277Y-12295317D01*
X18302325Y-12352460D02*
X18321373Y-12361984D01*
X18321373Y-12361984D02*
X18359468Y-12361984D01*
X18359468Y-12361984D02*
X18378516Y-12352460D01*
X18378516Y-12352460D02*
X18388039Y-12333412D01*
X18388039Y-12333412D02*
X18388039Y-12323888D01*
X18388039Y-12323888D02*
X18378516Y-12304841D01*
X18378516Y-12304841D02*
X18359468Y-12295317D01*
X18359468Y-12295317D02*
X18330896Y-12295317D01*
X18330896Y-12295317D02*
X18311849Y-12285793D01*
X18311849Y-12285793D02*
X18302325Y-12266746D01*
X18302325Y-12266746D02*
X18302325Y-12257222D01*
X18302325Y-12257222D02*
X18311849Y-12238174D01*
X18311849Y-12238174D02*
X18330896Y-12228650D01*
X18330896Y-12228650D02*
X18359468Y-12228650D01*
X18359468Y-12228650D02*
X18378516Y-12238174D01*
X18502325Y-12361984D02*
X18483277Y-12352460D01*
X18483277Y-12352460D02*
X18473754Y-12333412D01*
X18473754Y-12333412D02*
X18473754Y-12161984D01*
X18607087Y-12361984D02*
X18588039Y-12352460D01*
X18588039Y-12352460D02*
X18578516Y-12342936D01*
X18578516Y-12342936D02*
X18568992Y-12323888D01*
X18568992Y-12323888D02*
X18568992Y-12266746D01*
X18568992Y-12266746D02*
X18578516Y-12247698D01*
X18578516Y-12247698D02*
X18588039Y-12238174D01*
X18588039Y-12238174D02*
X18607087Y-12228650D01*
X18607087Y-12228650D02*
X18635658Y-12228650D01*
X18635658Y-12228650D02*
X18654706Y-12238174D01*
X18654706Y-12238174D02*
X18664230Y-12247698D01*
X18664230Y-12247698D02*
X18673754Y-12266746D01*
X18673754Y-12266746D02*
X18673754Y-12323888D01*
X18673754Y-12323888D02*
X18664230Y-12342936D01*
X18664230Y-12342936D02*
X18654706Y-12352460D01*
X18654706Y-12352460D02*
X18635658Y-12361984D01*
X18635658Y-12361984D02*
X18607087Y-12361984D01*
X18730897Y-12228650D02*
X18807087Y-12228650D01*
X18759468Y-12161984D02*
X18759468Y-12333412D01*
X18759468Y-12333412D02*
X18768992Y-12352460D01*
X18768992Y-12352460D02*
X18788039Y-12361984D01*
X18788039Y-12361984D02*
X18807087Y-12361984D01*
X18864230Y-12352460D02*
X18883277Y-12361984D01*
X18883277Y-12361984D02*
X18921373Y-12361984D01*
X18921373Y-12361984D02*
X18940420Y-12352460D01*
X18940420Y-12352460D02*
X18949944Y-12333412D01*
X18949944Y-12333412D02*
X18949944Y-12323888D01*
X18949944Y-12323888D02*
X18940420Y-12304841D01*
X18940420Y-12304841D02*
X18921373Y-12295317D01*
X18921373Y-12295317D02*
X18892801Y-12295317D01*
X18892801Y-12295317D02*
X18873754Y-12285793D01*
X18873754Y-12285793D02*
X18864230Y-12266746D01*
X18864230Y-12266746D02*
X18864230Y-12257222D01*
X18864230Y-12257222D02*
X18873754Y-12238174D01*
X18873754Y-12238174D02*
X18892801Y-12228650D01*
X18892801Y-12228650D02*
X18921373Y-12228650D01*
X18921373Y-12228650D02*
X18940420Y-12238174D01*
X19016611Y-12438174D02*
X19026135Y-12428650D01*
X19026135Y-12428650D02*
X19045182Y-12400079D01*
X19045182Y-12400079D02*
X19054706Y-12381031D01*
X19054706Y-12381031D02*
X19064230Y-12352460D01*
X19064230Y-12352460D02*
X19073754Y-12304841D01*
X19073754Y-12304841D02*
X19073754Y-12266746D01*
X19073754Y-12266746D02*
X19064230Y-12219127D01*
X19064230Y-12219127D02*
X19054706Y-12190555D01*
X19054706Y-12190555D02*
X19045182Y-12171508D01*
X19045182Y-12171508D02*
X19026135Y-12142936D01*
X19026135Y-12142936D02*
X19016611Y-12133412D01*
M02*
