%TF.GenerationSoftware,KiCad,Pcbnew,9.0.4*%
%TF.CreationDate,2025-08-24T10:47:50+01:00*%
%TF.ProjectId,usbc-7seg,75736263-2d37-4736-9567-2e6b69636164,rev?*%
%TF.SameCoordinates,Original*%
%TF.FileFunction,Legend,Bot*%
%TF.FilePolarity,Positive*%
%FSLAX46Y46*%
G04 Gerber Fmt 4.6, Leading zero omitted, Abs format (unit mm)*
G04 Created by KiCad (PCBNEW 9.0.4) date 2025-08-24 10:47:50*
%MOMM*%
%LPD*%
G01*
G04 APERTURE LIST*
G04 Aperture macros list*
%AMRoundRect*
0 Rectangle with rounded corners*
0 $1 Rounding radius*
0 $2 $3 $4 $5 $6 $7 $8 $9 X,Y pos of 4 corners*
0 Add a 4 corners polygon primitive as box body*
4,1,4,$2,$3,$4,$5,$6,$7,$8,$9,$2,$3,0*
0 Add four circle primitives for the rounded corners*
1,1,$1+$1,$2,$3*
1,1,$1+$1,$4,$5*
1,1,$1+$1,$6,$7*
1,1,$1+$1,$8,$9*
0 Add four rect primitives between the rounded corners*
20,1,$1+$1,$2,$3,$4,$5,0*
20,1,$1+$1,$4,$5,$6,$7,0*
20,1,$1+$1,$6,$7,$8,$9,0*
20,1,$1+$1,$8,$9,$2,$3,0*%
G04 Aperture macros list end*
%ADD10C,0.150000*%
%ADD11C,0.200000*%
%ADD12C,0.120000*%
%ADD13RoundRect,0.150000X-0.587500X-0.150000X0.587500X-0.150000X0.587500X0.150000X-0.587500X0.150000X0*%
%ADD14R,2.700000X2.700000*%
%ADD15RoundRect,0.050000X0.050000X0.362500X-0.050000X0.362500X-0.050000X-0.362500X0.050000X-0.362500X0*%
%ADD16RoundRect,0.050000X0.362500X0.050000X-0.362500X0.050000X-0.362500X-0.050000X0.362500X-0.050000X0*%
%ADD17RoundRect,0.140000X-0.170000X0.140000X-0.170000X-0.140000X0.170000X-0.140000X0.170000X0.140000X0*%
%ADD18RoundRect,0.225000X0.250000X-0.225000X0.250000X0.225000X-0.250000X0.225000X-0.250000X-0.225000X0*%
%ADD19RoundRect,0.225000X-0.250000X0.225000X-0.250000X-0.225000X0.250000X-0.225000X0.250000X0.225000X0*%
%ADD20C,1.500000*%
%ADD21RoundRect,0.140000X-0.140000X-0.170000X0.140000X-0.170000X0.140000X0.170000X-0.140000X0.170000X0*%
%ADD22RoundRect,0.250000X0.350000X-0.450000X0.350000X0.450000X-0.350000X0.450000X-0.350000X-0.450000X0*%
%ADD23RoundRect,0.150000X-0.150000X0.512500X-0.150000X-0.512500X0.150000X-0.512500X0.150000X0.512500X0*%
%ADD24RoundRect,0.140000X0.140000X0.170000X-0.140000X0.170000X-0.140000X-0.170000X0.140000X-0.170000X0*%
%ADD25RoundRect,0.135000X0.185000X-0.135000X0.185000X0.135000X-0.185000X0.135000X-0.185000X-0.135000X0*%
%ADD26O,1.600000X1.000000*%
%ADD27O,2.100000X1.000000*%
%ADD28C,0.650000*%
G04 APERTURE END LIST*
D10*
X132889411Y-104089223D02*
X133306077Y-103493985D01*
X133603696Y-104089223D02*
X133603696Y-102839223D01*
X133603696Y-102839223D02*
X133127506Y-102839223D01*
X133127506Y-102839223D02*
X133008458Y-102898747D01*
X133008458Y-102898747D02*
X132948935Y-102958271D01*
X132948935Y-102958271D02*
X132889411Y-103077319D01*
X132889411Y-103077319D02*
X132889411Y-103255890D01*
X132889411Y-103255890D02*
X132948935Y-103374938D01*
X132948935Y-103374938D02*
X133008458Y-103434461D01*
X133008458Y-103434461D02*
X133127506Y-103493985D01*
X133127506Y-103493985D02*
X133603696Y-103493985D01*
X135564285Y-104047342D02*
X135564285Y-102847342D01*
X135564285Y-102847342D02*
X135278571Y-102847342D01*
X135278571Y-102847342D02*
X135107142Y-102904485D01*
X135107142Y-102904485D02*
X134992857Y-103018771D01*
X134992857Y-103018771D02*
X134935714Y-103133057D01*
X134935714Y-103133057D02*
X134878571Y-103361628D01*
X134878571Y-103361628D02*
X134878571Y-103533057D01*
X134878571Y-103533057D02*
X134935714Y-103761628D01*
X134935714Y-103761628D02*
X134992857Y-103875914D01*
X134992857Y-103875914D02*
X135107142Y-103990200D01*
X135107142Y-103990200D02*
X135278571Y-104047342D01*
X135278571Y-104047342D02*
X135564285Y-104047342D01*
X134878571Y-101433057D02*
X134935714Y-101490200D01*
X134935714Y-101490200D02*
X135107142Y-101547342D01*
X135107142Y-101547342D02*
X135221428Y-101547342D01*
X135221428Y-101547342D02*
X135392857Y-101490200D01*
X135392857Y-101490200D02*
X135507142Y-101375914D01*
X135507142Y-101375914D02*
X135564285Y-101261628D01*
X135564285Y-101261628D02*
X135621428Y-101033057D01*
X135621428Y-101033057D02*
X135621428Y-100861628D01*
X135621428Y-100861628D02*
X135564285Y-100633057D01*
X135564285Y-100633057D02*
X135507142Y-100518771D01*
X135507142Y-100518771D02*
X135392857Y-100404485D01*
X135392857Y-100404485D02*
X135221428Y-100347342D01*
X135221428Y-100347342D02*
X135107142Y-100347342D01*
X135107142Y-100347342D02*
X134935714Y-100404485D01*
X134935714Y-100404485D02*
X134878571Y-100461628D01*
D11*
X157130326Y-97455671D02*
X157070802Y-97396147D01*
X157070802Y-97396147D02*
X156951755Y-97336623D01*
X156951755Y-97336623D02*
X156654136Y-97336623D01*
X156654136Y-97336623D02*
X156535088Y-97396147D01*
X156535088Y-97396147D02*
X156475564Y-97455671D01*
X156475564Y-97455671D02*
X156416041Y-97574719D01*
X156416041Y-97574719D02*
X156416041Y-97693766D01*
X156416041Y-97693766D02*
X156475564Y-97872338D01*
X156475564Y-97872338D02*
X157189850Y-98586623D01*
X157189850Y-98586623D02*
X156416041Y-98586623D01*
X155285088Y-97336623D02*
X155880326Y-97336623D01*
X155880326Y-97336623D02*
X155939850Y-97931861D01*
X155939850Y-97931861D02*
X155880326Y-97872338D01*
X155880326Y-97872338D02*
X155761279Y-97812814D01*
X155761279Y-97812814D02*
X155463660Y-97812814D01*
X155463660Y-97812814D02*
X155344612Y-97872338D01*
X155344612Y-97872338D02*
X155285088Y-97931861D01*
X155285088Y-97931861D02*
X155225565Y-98050909D01*
X155225565Y-98050909D02*
X155225565Y-98348528D01*
X155225565Y-98348528D02*
X155285088Y-98467576D01*
X155285088Y-98467576D02*
X155344612Y-98527100D01*
X155344612Y-98527100D02*
X155463660Y-98586623D01*
X155463660Y-98586623D02*
X155761279Y-98586623D01*
X155761279Y-98586623D02*
X155880326Y-98527100D01*
X155880326Y-98527100D02*
X155939850Y-98467576D01*
X154451755Y-97336623D02*
X154332708Y-97336623D01*
X154332708Y-97336623D02*
X154213660Y-97396147D01*
X154213660Y-97396147D02*
X154154136Y-97455671D01*
X154154136Y-97455671D02*
X154094612Y-97574719D01*
X154094612Y-97574719D02*
X154035089Y-97812814D01*
X154035089Y-97812814D02*
X154035089Y-98110433D01*
X154035089Y-98110433D02*
X154094612Y-98348528D01*
X154094612Y-98348528D02*
X154154136Y-98467576D01*
X154154136Y-98467576D02*
X154213660Y-98527100D01*
X154213660Y-98527100D02*
X154332708Y-98586623D01*
X154332708Y-98586623D02*
X154451755Y-98586623D01*
X154451755Y-98586623D02*
X154570803Y-98527100D01*
X154570803Y-98527100D02*
X154630327Y-98467576D01*
X154630327Y-98467576D02*
X154689850Y-98348528D01*
X154689850Y-98348528D02*
X154749374Y-98110433D01*
X154749374Y-98110433D02*
X154749374Y-97812814D01*
X154749374Y-97812814D02*
X154689850Y-97574719D01*
X154689850Y-97574719D02*
X154630327Y-97455671D01*
X154630327Y-97455671D02*
X154570803Y-97396147D01*
X154570803Y-97396147D02*
X154451755Y-97336623D01*
X153320803Y-97872338D02*
X153439851Y-97812814D01*
X153439851Y-97812814D02*
X153499374Y-97753290D01*
X153499374Y-97753290D02*
X153558898Y-97634242D01*
X153558898Y-97634242D02*
X153558898Y-97574719D01*
X153558898Y-97574719D02*
X153499374Y-97455671D01*
X153499374Y-97455671D02*
X153439851Y-97396147D01*
X153439851Y-97396147D02*
X153320803Y-97336623D01*
X153320803Y-97336623D02*
X153082708Y-97336623D01*
X153082708Y-97336623D02*
X152963660Y-97396147D01*
X152963660Y-97396147D02*
X152904136Y-97455671D01*
X152904136Y-97455671D02*
X152844613Y-97574719D01*
X152844613Y-97574719D02*
X152844613Y-97634242D01*
X152844613Y-97634242D02*
X152904136Y-97753290D01*
X152904136Y-97753290D02*
X152963660Y-97812814D01*
X152963660Y-97812814D02*
X153082708Y-97872338D01*
X153082708Y-97872338D02*
X153320803Y-97872338D01*
X153320803Y-97872338D02*
X153439851Y-97931861D01*
X153439851Y-97931861D02*
X153499374Y-97991385D01*
X153499374Y-97991385D02*
X153558898Y-98110433D01*
X153558898Y-98110433D02*
X153558898Y-98348528D01*
X153558898Y-98348528D02*
X153499374Y-98467576D01*
X153499374Y-98467576D02*
X153439851Y-98527100D01*
X153439851Y-98527100D02*
X153320803Y-98586623D01*
X153320803Y-98586623D02*
X153082708Y-98586623D01*
X153082708Y-98586623D02*
X152963660Y-98527100D01*
X152963660Y-98527100D02*
X152904136Y-98467576D01*
X152904136Y-98467576D02*
X152844613Y-98348528D01*
X152844613Y-98348528D02*
X152844613Y-98110433D01*
X152844613Y-98110433D02*
X152904136Y-97991385D01*
X152904136Y-97991385D02*
X152963660Y-97931861D01*
X152963660Y-97931861D02*
X153082708Y-97872338D01*
X152368422Y-97455671D02*
X152308898Y-97396147D01*
X152308898Y-97396147D02*
X152189851Y-97336623D01*
X152189851Y-97336623D02*
X151892232Y-97336623D01*
X151892232Y-97336623D02*
X151773184Y-97396147D01*
X151773184Y-97396147D02*
X151713660Y-97455671D01*
X151713660Y-97455671D02*
X151654137Y-97574719D01*
X151654137Y-97574719D02*
X151654137Y-97693766D01*
X151654137Y-97693766D02*
X151713660Y-97872338D01*
X151713660Y-97872338D02*
X152427946Y-98586623D01*
X152427946Y-98586623D02*
X151654137Y-98586623D01*
X150582708Y-97753290D02*
X150582708Y-98586623D01*
X150880327Y-97277100D02*
X151177946Y-98169957D01*
X151177946Y-98169957D02*
X150404137Y-98169957D01*
X149154137Y-97336623D02*
X148737470Y-98586623D01*
X148737470Y-98586623D02*
X148320804Y-97336623D01*
X147249375Y-98586623D02*
X147963660Y-98586623D01*
X147606517Y-98586623D02*
X147606517Y-97336623D01*
X147606517Y-97336623D02*
X147725565Y-97515195D01*
X147725565Y-97515195D02*
X147844613Y-97634242D01*
X147844613Y-97634242D02*
X147963660Y-97693766D01*
D12*
%TO.C,Q1*%
X140445000Y-99890000D02*
X139965000Y-99890000D01*
X140205000Y-99560000D01*
X140445000Y-99890000D01*
G36*
X140445000Y-99890000D02*
G01*
X139965000Y-99890000D01*
X140205000Y-99560000D01*
X140445000Y-99890000D01*
G37*
X141367500Y-99610000D02*
X142017500Y-99610000D01*
X141367500Y-99610000D02*
X140717500Y-99610000D01*
X141367500Y-96490000D02*
X142017500Y-96490000D01*
X141367500Y-96490000D02*
X140717500Y-96490000D01*
%TO.C,U3*%
X145540000Y-101390000D02*
X145300000Y-101060000D01*
X145780000Y-101060000D01*
X145540000Y-101390000D01*
G36*
X145540000Y-101390000D02*
G01*
X145300000Y-101060000D01*
X145780000Y-101060000D01*
X145540000Y-101390000D01*
G37*
X145540000Y-105610000D02*
X145540000Y-105060000D01*
X145540000Y-101940000D02*
X145540000Y-101630000D01*
X144990000Y-105610000D02*
X145540000Y-105610000D01*
X144990000Y-101390000D02*
X145240000Y-101390000D01*
X141870000Y-105610000D02*
X141320000Y-105610000D01*
X141870000Y-101390000D02*
X141320000Y-101390000D01*
X141320000Y-105610000D02*
X141320000Y-105060000D01*
X141320000Y-101390000D02*
X141320000Y-101940000D01*
%TO.C,Q2*%
X149477500Y-110640000D02*
X148997500Y-110640000D01*
X149237500Y-110310000D01*
X149477500Y-110640000D01*
G36*
X149477500Y-110640000D02*
G01*
X148997500Y-110640000D01*
X149237500Y-110310000D01*
X149477500Y-110640000D01*
G37*
X150400000Y-110360000D02*
X151050000Y-110360000D01*
X150400000Y-110360000D02*
X149750000Y-110360000D01*
X150400000Y-107240000D02*
X151050000Y-107240000D01*
X150400000Y-107240000D02*
X149750000Y-107240000D01*
%TO.C,C3*%
X140360000Y-104092164D02*
X140360000Y-104307836D01*
X139640000Y-104092164D02*
X139640000Y-104307836D01*
%TO.C,C1*%
X136410000Y-109040580D02*
X136410000Y-108759420D01*
X135390000Y-109040580D02*
X135390000Y-108759420D01*
%TO.C,C4*%
X146990000Y-104892164D02*
X146990000Y-105107836D01*
X146270000Y-104892164D02*
X146270000Y-105107836D01*
%TO.C,C2*%
X140790000Y-108759420D02*
X140790000Y-109040580D01*
X141810000Y-108759420D02*
X141810000Y-109040580D01*
%TO.C,TP5*%
X129200000Y-101000000D02*
G75*
G02*
X127300000Y-101000000I-950000J0D01*
G01*
X127300000Y-101000000D02*
G75*
G02*
X129200000Y-101000000I950000J0D01*
G01*
%TO.C,C5*%
X148842164Y-106560000D02*
X149057836Y-106560000D01*
X148842164Y-105840000D02*
X149057836Y-105840000D01*
%TO.C,Y1*%
X150660000Y-105560000D02*
X147240000Y-105560000D01*
X147240000Y-105560000D02*
X147240000Y-101440000D01*
%TO.C,U4*%
X137090000Y-107200000D02*
X136760000Y-107440000D01*
X136760000Y-106960000D01*
X137090000Y-107200000D01*
G36*
X137090000Y-107200000D02*
G01*
X136760000Y-107440000D01*
X136760000Y-106960000D01*
X137090000Y-107200000D01*
G37*
X140160000Y-108500000D02*
X140160000Y-107700000D01*
X140160000Y-108500000D02*
X140160000Y-109300000D01*
X137040000Y-108500000D02*
X137040000Y-107700000D01*
X137040000Y-108500000D02*
X137040000Y-109300000D01*
%TO.C,C6*%
X149057836Y-101160000D02*
X148842164Y-101160000D01*
X149057836Y-100440000D02*
X148842164Y-100440000D01*
%TO.C,TP2*%
X129200000Y-103500000D02*
G75*
G02*
X127300000Y-103500000I-950000J0D01*
G01*
X127300000Y-103500000D02*
G75*
G02*
X129200000Y-103500000I950000J0D01*
G01*
%TO.C,TP1*%
X129200000Y-106000000D02*
G75*
G02*
X127300000Y-106000000I-950000J0D01*
G01*
X127300000Y-106000000D02*
G75*
G02*
X129200000Y-106000000I950000J0D01*
G01*
%TO.C,R3*%
X130630000Y-106253641D02*
X130630000Y-105946359D01*
X129870000Y-106253641D02*
X129870000Y-105946359D01*
%TO.C,TP3*%
X131700000Y-103500000D02*
G75*
G02*
X129800000Y-103500000I-950000J0D01*
G01*
X129800000Y-103500000D02*
G75*
G02*
X131700000Y-103500000I950000J0D01*
G01*
%TO.C,TP4*%
X131700000Y-101000000D02*
G75*
G02*
X129800000Y-101000000I-950000J0D01*
G01*
X129800000Y-101000000D02*
G75*
G02*
X131700000Y-101000000I950000J0D01*
G01*
%TD*%
%LPC*%
D13*
%TO.C,Q1*%
X142305000Y-98050000D03*
X140430000Y-97100000D03*
X140430000Y-99000000D03*
%TD*%
D14*
%TO.C,U3*%
X143430000Y-103500000D03*
D15*
X144630000Y-101537500D03*
X144230000Y-101537500D03*
X143830000Y-101537500D03*
X143430000Y-101537500D03*
X143030000Y-101537500D03*
X142630000Y-101537500D03*
X142230000Y-101537500D03*
D16*
X141467500Y-102300000D03*
X141467500Y-102700000D03*
X141467500Y-103100000D03*
X141467500Y-103500000D03*
X141467500Y-103900000D03*
X141467500Y-104300000D03*
X141467500Y-104700000D03*
D15*
X142230000Y-105462500D03*
X142630000Y-105462500D03*
X143030000Y-105462500D03*
X143430000Y-105462500D03*
X143830000Y-105462500D03*
X144230000Y-105462500D03*
X144630000Y-105462500D03*
D16*
X145392500Y-104700000D03*
X145392500Y-104300000D03*
X145392500Y-103900000D03*
X145392500Y-103500000D03*
X145392500Y-103100000D03*
X145392500Y-102700000D03*
X145392500Y-102300000D03*
%TD*%
D13*
%TO.C,Q2*%
X151337500Y-108800000D03*
X149462500Y-107850000D03*
X149462500Y-109750000D03*
%TD*%
D17*
%TO.C,C3*%
X140000000Y-104680000D03*
X140000000Y-103720000D03*
%TD*%
D18*
%TO.C,C1*%
X135900000Y-108125000D03*
X135900000Y-109675000D03*
%TD*%
D17*
%TO.C,C4*%
X146630000Y-105480000D03*
X146630000Y-104520000D03*
%TD*%
D19*
%TO.C,C2*%
X141300000Y-109675000D03*
X141300000Y-108125000D03*
%TD*%
D20*
%TO.C,TP5*%
X128250000Y-101000000D03*
%TD*%
D21*
%TO.C,C5*%
X149430000Y-106200000D03*
X148470000Y-106200000D03*
%TD*%
D22*
%TO.C,Y1*%
X149800000Y-104600000D03*
X149800000Y-102400000D03*
X148100000Y-102400000D03*
X148100000Y-104600000D03*
%TD*%
D23*
%TO.C,U4*%
X138600000Y-109637500D03*
X139550000Y-107362500D03*
X137650000Y-107362500D03*
%TD*%
D24*
%TO.C,C6*%
X148470000Y-100800000D03*
X149430000Y-100800000D03*
%TD*%
D20*
%TO.C,TP2*%
X128250000Y-103500000D03*
%TD*%
%TO.C,TP1*%
X128250000Y-106000000D03*
%TD*%
D25*
%TO.C,R3*%
X130250000Y-106610000D03*
X130250000Y-105590000D03*
%TD*%
D20*
%TO.C,TP3*%
X130750000Y-103500000D03*
%TD*%
%TO.C,TP4*%
X130750000Y-101000000D03*
%TD*%
D26*
%TO.C,J1*%
X129425000Y-107820000D03*
D27*
X133605000Y-107820000D03*
D26*
X129425000Y-99180000D03*
D27*
X133605000Y-99180000D03*
D28*
X133105000Y-106390000D03*
X133105000Y-100610000D03*
%TD*%
%LPD*%
M02*
