%TF.GenerationSoftware,KiCad,Pcbnew,9.0.4*%
%TF.CreationDate,2025-08-24T10:48:39+01:00*%
%TF.ProjectId,usbc-7seg,75736263-2d37-4736-9567-2e6b69636164,rev?*%
%TF.SameCoordinates,Original*%
%TF.FileFunction,Drillmap*%
%TF.FilePolarity,Positive*%
%FSLAX45Y45*%
G04 Gerber Fmt 4.5, Leading zero omitted, Abs format (unit mm)*
G04 Created by KiCad (PCBNEW 9.0.4) date 2025-08-24 10:48:39*
%MOMM*%
%LPD*%
G01*
G04 APERTURE LIST*
%ADD10C,0.050000*%
%ADD11C,0.200000*%
%ADD12C,0.100000*%
G04 APERTURE END LIST*
D10*
X15700000Y-11098580D02*
X15700000Y-11100000D01*
X15900000Y-10898580D02*
G75*
G02*
X15700000Y-11098580I-200000J0D01*
G01*
X15700000Y-9600000D02*
G75*
G02*
X15900000Y-9800000I0J-200000D01*
G01*
X12625000Y-9600000D02*
X12625000Y-11100000D01*
X12625000Y-11100000D02*
X15700000Y-11100000D01*
X15900000Y-10898580D02*
X15900000Y-9800000D01*
X15700000Y-9600000D02*
X12625000Y-9600000D01*
D11*
D12*
X13278000Y-10028500D02*
X13343000Y-10093500D01*
X13343000Y-10028500D02*
X13278000Y-10093500D01*
X13278000Y-10606500D02*
X13343000Y-10671500D01*
X13343000Y-10606500D02*
X13278000Y-10671500D01*
D11*
X12883277Y-11413984D02*
X12883277Y-11213984D01*
X12883277Y-11213984D02*
X12930896Y-11213984D01*
X12930896Y-11213984D02*
X12959467Y-11223508D01*
X12959467Y-11223508D02*
X12978515Y-11242555D01*
X12978515Y-11242555D02*
X12988039Y-11261603D01*
X12988039Y-11261603D02*
X12997562Y-11299698D01*
X12997562Y-11299698D02*
X12997562Y-11328269D01*
X12997562Y-11328269D02*
X12988039Y-11366365D01*
X12988039Y-11366365D02*
X12978515Y-11385412D01*
X12978515Y-11385412D02*
X12959467Y-11404460D01*
X12959467Y-11404460D02*
X12930896Y-11413984D01*
X12930896Y-11413984D02*
X12883277Y-11413984D01*
X13083277Y-11413984D02*
X13083277Y-11280650D01*
X13083277Y-11318746D02*
X13092801Y-11299698D01*
X13092801Y-11299698D02*
X13102324Y-11290174D01*
X13102324Y-11290174D02*
X13121372Y-11280650D01*
X13121372Y-11280650D02*
X13140420Y-11280650D01*
X13207086Y-11413984D02*
X13207086Y-11280650D01*
X13207086Y-11213984D02*
X13197562Y-11223508D01*
X13197562Y-11223508D02*
X13207086Y-11233031D01*
X13207086Y-11233031D02*
X13216610Y-11223508D01*
X13216610Y-11223508D02*
X13207086Y-11213984D01*
X13207086Y-11213984D02*
X13207086Y-11233031D01*
X13330896Y-11413984D02*
X13311848Y-11404460D01*
X13311848Y-11404460D02*
X13302324Y-11385412D01*
X13302324Y-11385412D02*
X13302324Y-11213984D01*
X13435658Y-11413984D02*
X13416610Y-11404460D01*
X13416610Y-11404460D02*
X13407086Y-11385412D01*
X13407086Y-11385412D02*
X13407086Y-11213984D01*
X13664229Y-11413984D02*
X13664229Y-11213984D01*
X13664229Y-11213984D02*
X13730896Y-11356841D01*
X13730896Y-11356841D02*
X13797562Y-11213984D01*
X13797562Y-11213984D02*
X13797562Y-11413984D01*
X13978515Y-11413984D02*
X13978515Y-11309222D01*
X13978515Y-11309222D02*
X13968991Y-11290174D01*
X13968991Y-11290174D02*
X13949943Y-11280650D01*
X13949943Y-11280650D02*
X13911848Y-11280650D01*
X13911848Y-11280650D02*
X13892801Y-11290174D01*
X13978515Y-11404460D02*
X13959467Y-11413984D01*
X13959467Y-11413984D02*
X13911848Y-11413984D01*
X13911848Y-11413984D02*
X13892801Y-11404460D01*
X13892801Y-11404460D02*
X13883277Y-11385412D01*
X13883277Y-11385412D02*
X13883277Y-11366365D01*
X13883277Y-11366365D02*
X13892801Y-11347317D01*
X13892801Y-11347317D02*
X13911848Y-11337793D01*
X13911848Y-11337793D02*
X13959467Y-11337793D01*
X13959467Y-11337793D02*
X13978515Y-11328269D01*
X14073753Y-11280650D02*
X14073753Y-11480650D01*
X14073753Y-11290174D02*
X14092801Y-11280650D01*
X14092801Y-11280650D02*
X14130896Y-11280650D01*
X14130896Y-11280650D02*
X14149943Y-11290174D01*
X14149943Y-11290174D02*
X14159467Y-11299698D01*
X14159467Y-11299698D02*
X14168991Y-11318746D01*
X14168991Y-11318746D02*
X14168991Y-11375888D01*
X14168991Y-11375888D02*
X14159467Y-11394936D01*
X14159467Y-11394936D02*
X14149943Y-11404460D01*
X14149943Y-11404460D02*
X14130896Y-11413984D01*
X14130896Y-11413984D02*
X14092801Y-11413984D01*
X14092801Y-11413984D02*
X14073753Y-11404460D01*
X14254705Y-11394936D02*
X14264229Y-11404460D01*
X14264229Y-11404460D02*
X14254705Y-11413984D01*
X14254705Y-11413984D02*
X14245182Y-11404460D01*
X14245182Y-11404460D02*
X14254705Y-11394936D01*
X14254705Y-11394936D02*
X14254705Y-11413984D01*
X14254705Y-11290174D02*
X14264229Y-11299698D01*
X14264229Y-11299698D02*
X14254705Y-11309222D01*
X14254705Y-11309222D02*
X14245182Y-11299698D01*
X14245182Y-11299698D02*
X14254705Y-11290174D01*
X14254705Y-11290174D02*
X14254705Y-11309222D01*
D12*
X12557500Y-11710000D02*
X12622500Y-11775000D01*
X12622500Y-11710000D02*
X12557500Y-11775000D01*
D11*
X12921372Y-11633984D02*
X12940420Y-11633984D01*
X12940420Y-11633984D02*
X12959467Y-11643508D01*
X12959467Y-11643508D02*
X12968991Y-11653031D01*
X12968991Y-11653031D02*
X12978515Y-11672079D01*
X12978515Y-11672079D02*
X12988039Y-11710174D01*
X12988039Y-11710174D02*
X12988039Y-11757793D01*
X12988039Y-11757793D02*
X12978515Y-11795888D01*
X12978515Y-11795888D02*
X12968991Y-11814936D01*
X12968991Y-11814936D02*
X12959467Y-11824460D01*
X12959467Y-11824460D02*
X12940420Y-11833984D01*
X12940420Y-11833984D02*
X12921372Y-11833984D01*
X12921372Y-11833984D02*
X12902324Y-11824460D01*
X12902324Y-11824460D02*
X12892801Y-11814936D01*
X12892801Y-11814936D02*
X12883277Y-11795888D01*
X12883277Y-11795888D02*
X12873753Y-11757793D01*
X12873753Y-11757793D02*
X12873753Y-11710174D01*
X12873753Y-11710174D02*
X12883277Y-11672079D01*
X12883277Y-11672079D02*
X12892801Y-11653031D01*
X12892801Y-11653031D02*
X12902324Y-11643508D01*
X12902324Y-11643508D02*
X12921372Y-11633984D01*
X13073753Y-11814936D02*
X13083277Y-11824460D01*
X13083277Y-11824460D02*
X13073753Y-11833984D01*
X13073753Y-11833984D02*
X13064229Y-11824460D01*
X13064229Y-11824460D02*
X13073753Y-11814936D01*
X13073753Y-11814936D02*
X13073753Y-11833984D01*
X13254705Y-11633984D02*
X13216610Y-11633984D01*
X13216610Y-11633984D02*
X13197562Y-11643508D01*
X13197562Y-11643508D02*
X13188039Y-11653031D01*
X13188039Y-11653031D02*
X13168991Y-11681603D01*
X13168991Y-11681603D02*
X13159467Y-11719698D01*
X13159467Y-11719698D02*
X13159467Y-11795888D01*
X13159467Y-11795888D02*
X13168991Y-11814936D01*
X13168991Y-11814936D02*
X13178515Y-11824460D01*
X13178515Y-11824460D02*
X13197562Y-11833984D01*
X13197562Y-11833984D02*
X13235658Y-11833984D01*
X13235658Y-11833984D02*
X13254705Y-11824460D01*
X13254705Y-11824460D02*
X13264229Y-11814936D01*
X13264229Y-11814936D02*
X13273753Y-11795888D01*
X13273753Y-11795888D02*
X13273753Y-11748269D01*
X13273753Y-11748269D02*
X13264229Y-11729222D01*
X13264229Y-11729222D02*
X13254705Y-11719698D01*
X13254705Y-11719698D02*
X13235658Y-11710174D01*
X13235658Y-11710174D02*
X13197562Y-11710174D01*
X13197562Y-11710174D02*
X13178515Y-11719698D01*
X13178515Y-11719698D02*
X13168991Y-11729222D01*
X13168991Y-11729222D02*
X13159467Y-11748269D01*
X13454705Y-11633984D02*
X13359467Y-11633984D01*
X13359467Y-11633984D02*
X13349943Y-11729222D01*
X13349943Y-11729222D02*
X13359467Y-11719698D01*
X13359467Y-11719698D02*
X13378515Y-11710174D01*
X13378515Y-11710174D02*
X13426134Y-11710174D01*
X13426134Y-11710174D02*
X13445182Y-11719698D01*
X13445182Y-11719698D02*
X13454705Y-11729222D01*
X13454705Y-11729222D02*
X13464229Y-11748269D01*
X13464229Y-11748269D02*
X13464229Y-11795888D01*
X13464229Y-11795888D02*
X13454705Y-11814936D01*
X13454705Y-11814936D02*
X13445182Y-11824460D01*
X13445182Y-11824460D02*
X13426134Y-11833984D01*
X13426134Y-11833984D02*
X13378515Y-11833984D01*
X13378515Y-11833984D02*
X13359467Y-11824460D01*
X13359467Y-11824460D02*
X13349943Y-11814936D01*
X13588039Y-11633984D02*
X13607086Y-11633984D01*
X13607086Y-11633984D02*
X13626134Y-11643508D01*
X13626134Y-11643508D02*
X13635658Y-11653031D01*
X13635658Y-11653031D02*
X13645182Y-11672079D01*
X13645182Y-11672079D02*
X13654705Y-11710174D01*
X13654705Y-11710174D02*
X13654705Y-11757793D01*
X13654705Y-11757793D02*
X13645182Y-11795888D01*
X13645182Y-11795888D02*
X13635658Y-11814936D01*
X13635658Y-11814936D02*
X13626134Y-11824460D01*
X13626134Y-11824460D02*
X13607086Y-11833984D01*
X13607086Y-11833984D02*
X13588039Y-11833984D01*
X13588039Y-11833984D02*
X13568991Y-11824460D01*
X13568991Y-11824460D02*
X13559467Y-11814936D01*
X13559467Y-11814936D02*
X13549943Y-11795888D01*
X13549943Y-11795888D02*
X13540420Y-11757793D01*
X13540420Y-11757793D02*
X13540420Y-11710174D01*
X13540420Y-11710174D02*
X13549943Y-11672079D01*
X13549943Y-11672079D02*
X13559467Y-11653031D01*
X13559467Y-11653031D02*
X13568991Y-11643508D01*
X13568991Y-11643508D02*
X13588039Y-11633984D01*
X13740420Y-11833984D02*
X13740420Y-11700650D01*
X13740420Y-11719698D02*
X13749943Y-11710174D01*
X13749943Y-11710174D02*
X13768991Y-11700650D01*
X13768991Y-11700650D02*
X13797563Y-11700650D01*
X13797563Y-11700650D02*
X13816610Y-11710174D01*
X13816610Y-11710174D02*
X13826134Y-11729222D01*
X13826134Y-11729222D02*
X13826134Y-11833984D01*
X13826134Y-11729222D02*
X13835658Y-11710174D01*
X13835658Y-11710174D02*
X13854705Y-11700650D01*
X13854705Y-11700650D02*
X13883277Y-11700650D01*
X13883277Y-11700650D02*
X13902324Y-11710174D01*
X13902324Y-11710174D02*
X13911848Y-11729222D01*
X13911848Y-11729222D02*
X13911848Y-11833984D01*
X14007086Y-11833984D02*
X14007086Y-11700650D01*
X14007086Y-11719698D02*
X14016610Y-11710174D01*
X14016610Y-11710174D02*
X14035658Y-11700650D01*
X14035658Y-11700650D02*
X14064229Y-11700650D01*
X14064229Y-11700650D02*
X14083277Y-11710174D01*
X14083277Y-11710174D02*
X14092801Y-11729222D01*
X14092801Y-11729222D02*
X14092801Y-11833984D01*
X14092801Y-11729222D02*
X14102324Y-11710174D01*
X14102324Y-11710174D02*
X14121372Y-11700650D01*
X14121372Y-11700650D02*
X14149943Y-11700650D01*
X14149943Y-11700650D02*
X14168991Y-11710174D01*
X14168991Y-11710174D02*
X14178515Y-11729222D01*
X14178515Y-11729222D02*
X14178515Y-11833984D01*
X14568991Y-11624460D02*
X14397563Y-11881603D01*
X14826134Y-11633984D02*
X14845182Y-11633984D01*
X14845182Y-11633984D02*
X14864229Y-11643508D01*
X14864229Y-11643508D02*
X14873753Y-11653031D01*
X14873753Y-11653031D02*
X14883277Y-11672079D01*
X14883277Y-11672079D02*
X14892801Y-11710174D01*
X14892801Y-11710174D02*
X14892801Y-11757793D01*
X14892801Y-11757793D02*
X14883277Y-11795888D01*
X14883277Y-11795888D02*
X14873753Y-11814936D01*
X14873753Y-11814936D02*
X14864229Y-11824460D01*
X14864229Y-11824460D02*
X14845182Y-11833984D01*
X14845182Y-11833984D02*
X14826134Y-11833984D01*
X14826134Y-11833984D02*
X14807086Y-11824460D01*
X14807086Y-11824460D02*
X14797563Y-11814936D01*
X14797563Y-11814936D02*
X14788039Y-11795888D01*
X14788039Y-11795888D02*
X14778515Y-11757793D01*
X14778515Y-11757793D02*
X14778515Y-11710174D01*
X14778515Y-11710174D02*
X14788039Y-11672079D01*
X14788039Y-11672079D02*
X14797563Y-11653031D01*
X14797563Y-11653031D02*
X14807086Y-11643508D01*
X14807086Y-11643508D02*
X14826134Y-11633984D01*
X14978515Y-11814936D02*
X14988039Y-11824460D01*
X14988039Y-11824460D02*
X14978515Y-11833984D01*
X14978515Y-11833984D02*
X14968991Y-11824460D01*
X14968991Y-11824460D02*
X14978515Y-11814936D01*
X14978515Y-11814936D02*
X14978515Y-11833984D01*
X15111848Y-11633984D02*
X15130896Y-11633984D01*
X15130896Y-11633984D02*
X15149944Y-11643508D01*
X15149944Y-11643508D02*
X15159467Y-11653031D01*
X15159467Y-11653031D02*
X15168991Y-11672079D01*
X15168991Y-11672079D02*
X15178515Y-11710174D01*
X15178515Y-11710174D02*
X15178515Y-11757793D01*
X15178515Y-11757793D02*
X15168991Y-11795888D01*
X15168991Y-11795888D02*
X15159467Y-11814936D01*
X15159467Y-11814936D02*
X15149944Y-11824460D01*
X15149944Y-11824460D02*
X15130896Y-11833984D01*
X15130896Y-11833984D02*
X15111848Y-11833984D01*
X15111848Y-11833984D02*
X15092801Y-11824460D01*
X15092801Y-11824460D02*
X15083277Y-11814936D01*
X15083277Y-11814936D02*
X15073753Y-11795888D01*
X15073753Y-11795888D02*
X15064229Y-11757793D01*
X15064229Y-11757793D02*
X15064229Y-11710174D01*
X15064229Y-11710174D02*
X15073753Y-11672079D01*
X15073753Y-11672079D02*
X15083277Y-11653031D01*
X15083277Y-11653031D02*
X15092801Y-11643508D01*
X15092801Y-11643508D02*
X15111848Y-11633984D01*
X15254706Y-11653031D02*
X15264229Y-11643508D01*
X15264229Y-11643508D02*
X15283277Y-11633984D01*
X15283277Y-11633984D02*
X15330896Y-11633984D01*
X15330896Y-11633984D02*
X15349944Y-11643508D01*
X15349944Y-11643508D02*
X15359467Y-11653031D01*
X15359467Y-11653031D02*
X15368991Y-11672079D01*
X15368991Y-11672079D02*
X15368991Y-11691127D01*
X15368991Y-11691127D02*
X15359467Y-11719698D01*
X15359467Y-11719698D02*
X15245182Y-11833984D01*
X15245182Y-11833984D02*
X15368991Y-11833984D01*
X15549944Y-11633984D02*
X15454706Y-11633984D01*
X15454706Y-11633984D02*
X15445182Y-11729222D01*
X15445182Y-11729222D02*
X15454706Y-11719698D01*
X15454706Y-11719698D02*
X15473753Y-11710174D01*
X15473753Y-11710174D02*
X15521372Y-11710174D01*
X15521372Y-11710174D02*
X15540420Y-11719698D01*
X15540420Y-11719698D02*
X15549944Y-11729222D01*
X15549944Y-11729222D02*
X15559467Y-11748269D01*
X15559467Y-11748269D02*
X15559467Y-11795888D01*
X15559467Y-11795888D02*
X15549944Y-11814936D01*
X15549944Y-11814936D02*
X15540420Y-11824460D01*
X15540420Y-11824460D02*
X15521372Y-11833984D01*
X15521372Y-11833984D02*
X15473753Y-11833984D01*
X15473753Y-11833984D02*
X15454706Y-11824460D01*
X15454706Y-11824460D02*
X15445182Y-11814936D01*
X15730896Y-11633984D02*
X15692801Y-11633984D01*
X15692801Y-11633984D02*
X15673753Y-11643508D01*
X15673753Y-11643508D02*
X15664229Y-11653031D01*
X15664229Y-11653031D02*
X15645182Y-11681603D01*
X15645182Y-11681603D02*
X15635658Y-11719698D01*
X15635658Y-11719698D02*
X15635658Y-11795888D01*
X15635658Y-11795888D02*
X15645182Y-11814936D01*
X15645182Y-11814936D02*
X15654706Y-11824460D01*
X15654706Y-11824460D02*
X15673753Y-11833984D01*
X15673753Y-11833984D02*
X15711848Y-11833984D01*
X15711848Y-11833984D02*
X15730896Y-11824460D01*
X15730896Y-11824460D02*
X15740420Y-11814936D01*
X15740420Y-11814936D02*
X15749944Y-11795888D01*
X15749944Y-11795888D02*
X15749944Y-11748269D01*
X15749944Y-11748269D02*
X15740420Y-11729222D01*
X15740420Y-11729222D02*
X15730896Y-11719698D01*
X15730896Y-11719698D02*
X15711848Y-11710174D01*
X15711848Y-11710174D02*
X15673753Y-11710174D01*
X15673753Y-11710174D02*
X15654706Y-11719698D01*
X15654706Y-11719698D02*
X15645182Y-11729222D01*
X15645182Y-11729222D02*
X15635658Y-11748269D01*
X15826134Y-11633984D02*
X15826134Y-11672079D01*
X15902325Y-11633984D02*
X15902325Y-11672079D01*
X16197563Y-11910174D02*
X16188039Y-11900650D01*
X16188039Y-11900650D02*
X16168991Y-11872079D01*
X16168991Y-11872079D02*
X16159468Y-11853031D01*
X16159468Y-11853031D02*
X16149944Y-11824460D01*
X16149944Y-11824460D02*
X16140420Y-11776841D01*
X16140420Y-11776841D02*
X16140420Y-11738746D01*
X16140420Y-11738746D02*
X16149944Y-11691127D01*
X16149944Y-11691127D02*
X16159468Y-11662555D01*
X16159468Y-11662555D02*
X16168991Y-11643508D01*
X16168991Y-11643508D02*
X16188039Y-11614936D01*
X16188039Y-11614936D02*
X16197563Y-11605412D01*
X16264229Y-11653031D02*
X16273753Y-11643508D01*
X16273753Y-11643508D02*
X16292801Y-11633984D01*
X16292801Y-11633984D02*
X16340420Y-11633984D01*
X16340420Y-11633984D02*
X16359468Y-11643508D01*
X16359468Y-11643508D02*
X16368991Y-11653031D01*
X16368991Y-11653031D02*
X16378515Y-11672079D01*
X16378515Y-11672079D02*
X16378515Y-11691127D01*
X16378515Y-11691127D02*
X16368991Y-11719698D01*
X16368991Y-11719698D02*
X16254706Y-11833984D01*
X16254706Y-11833984D02*
X16378515Y-11833984D01*
X16616610Y-11833984D02*
X16616610Y-11633984D01*
X16702325Y-11833984D02*
X16702325Y-11729222D01*
X16702325Y-11729222D02*
X16692801Y-11710174D01*
X16692801Y-11710174D02*
X16673753Y-11700650D01*
X16673753Y-11700650D02*
X16645182Y-11700650D01*
X16645182Y-11700650D02*
X16626134Y-11710174D01*
X16626134Y-11710174D02*
X16616610Y-11719698D01*
X16826134Y-11833984D02*
X16807087Y-11824460D01*
X16807087Y-11824460D02*
X16797563Y-11814936D01*
X16797563Y-11814936D02*
X16788039Y-11795888D01*
X16788039Y-11795888D02*
X16788039Y-11738746D01*
X16788039Y-11738746D02*
X16797563Y-11719698D01*
X16797563Y-11719698D02*
X16807087Y-11710174D01*
X16807087Y-11710174D02*
X16826134Y-11700650D01*
X16826134Y-11700650D02*
X16854706Y-11700650D01*
X16854706Y-11700650D02*
X16873753Y-11710174D01*
X16873753Y-11710174D02*
X16883277Y-11719698D01*
X16883277Y-11719698D02*
X16892801Y-11738746D01*
X16892801Y-11738746D02*
X16892801Y-11795888D01*
X16892801Y-11795888D02*
X16883277Y-11814936D01*
X16883277Y-11814936D02*
X16873753Y-11824460D01*
X16873753Y-11824460D02*
X16854706Y-11833984D01*
X16854706Y-11833984D02*
X16826134Y-11833984D01*
X17007087Y-11833984D02*
X16988039Y-11824460D01*
X16988039Y-11824460D02*
X16978515Y-11805412D01*
X16978515Y-11805412D02*
X16978515Y-11633984D01*
X17159468Y-11824460D02*
X17140420Y-11833984D01*
X17140420Y-11833984D02*
X17102325Y-11833984D01*
X17102325Y-11833984D02*
X17083277Y-11824460D01*
X17083277Y-11824460D02*
X17073753Y-11805412D01*
X17073753Y-11805412D02*
X17073753Y-11729222D01*
X17073753Y-11729222D02*
X17083277Y-11710174D01*
X17083277Y-11710174D02*
X17102325Y-11700650D01*
X17102325Y-11700650D02*
X17140420Y-11700650D01*
X17140420Y-11700650D02*
X17159468Y-11710174D01*
X17159468Y-11710174D02*
X17168992Y-11729222D01*
X17168992Y-11729222D02*
X17168992Y-11748269D01*
X17168992Y-11748269D02*
X17073753Y-11767317D01*
X17245182Y-11824460D02*
X17264230Y-11833984D01*
X17264230Y-11833984D02*
X17302325Y-11833984D01*
X17302325Y-11833984D02*
X17321373Y-11824460D01*
X17321373Y-11824460D02*
X17330896Y-11805412D01*
X17330896Y-11805412D02*
X17330896Y-11795888D01*
X17330896Y-11795888D02*
X17321373Y-11776841D01*
X17321373Y-11776841D02*
X17302325Y-11767317D01*
X17302325Y-11767317D02*
X17273753Y-11767317D01*
X17273753Y-11767317D02*
X17254706Y-11757793D01*
X17254706Y-11757793D02*
X17245182Y-11738746D01*
X17245182Y-11738746D02*
X17245182Y-11729222D01*
X17245182Y-11729222D02*
X17254706Y-11710174D01*
X17254706Y-11710174D02*
X17273753Y-11700650D01*
X17273753Y-11700650D02*
X17302325Y-11700650D01*
X17302325Y-11700650D02*
X17321373Y-11710174D01*
X17397563Y-11910174D02*
X17407087Y-11900650D01*
X17407087Y-11900650D02*
X17426134Y-11872079D01*
X17426134Y-11872079D02*
X17435658Y-11853031D01*
X17435658Y-11853031D02*
X17445182Y-11824460D01*
X17445182Y-11824460D02*
X17454706Y-11776841D01*
X17454706Y-11776841D02*
X17454706Y-11738746D01*
X17454706Y-11738746D02*
X17445182Y-11691127D01*
X17445182Y-11691127D02*
X17435658Y-11662555D01*
X17435658Y-11662555D02*
X17426134Y-11643508D01*
X17426134Y-11643508D02*
X17407087Y-11614936D01*
X17407087Y-11614936D02*
X17397563Y-11605412D01*
X17759468Y-11910174D02*
X17749944Y-11900650D01*
X17749944Y-11900650D02*
X17730896Y-11872079D01*
X17730896Y-11872079D02*
X17721373Y-11853031D01*
X17721373Y-11853031D02*
X17711849Y-11824460D01*
X17711849Y-11824460D02*
X17702325Y-11776841D01*
X17702325Y-11776841D02*
X17702325Y-11738746D01*
X17702325Y-11738746D02*
X17711849Y-11691127D01*
X17711849Y-11691127D02*
X17721373Y-11662555D01*
X17721373Y-11662555D02*
X17730896Y-11643508D01*
X17730896Y-11643508D02*
X17749944Y-11614936D01*
X17749944Y-11614936D02*
X17759468Y-11605412D01*
X17835658Y-11700650D02*
X17835658Y-11833984D01*
X17835658Y-11719698D02*
X17845182Y-11710174D01*
X17845182Y-11710174D02*
X17864230Y-11700650D01*
X17864230Y-11700650D02*
X17892801Y-11700650D01*
X17892801Y-11700650D02*
X17911849Y-11710174D01*
X17911849Y-11710174D02*
X17921373Y-11729222D01*
X17921373Y-11729222D02*
X17921373Y-11833984D01*
X18045182Y-11833984D02*
X18026134Y-11824460D01*
X18026134Y-11824460D02*
X18016611Y-11814936D01*
X18016611Y-11814936D02*
X18007087Y-11795888D01*
X18007087Y-11795888D02*
X18007087Y-11738746D01*
X18007087Y-11738746D02*
X18016611Y-11719698D01*
X18016611Y-11719698D02*
X18026134Y-11710174D01*
X18026134Y-11710174D02*
X18045182Y-11700650D01*
X18045182Y-11700650D02*
X18073754Y-11700650D01*
X18073754Y-11700650D02*
X18092801Y-11710174D01*
X18092801Y-11710174D02*
X18102325Y-11719698D01*
X18102325Y-11719698D02*
X18111849Y-11738746D01*
X18111849Y-11738746D02*
X18111849Y-11795888D01*
X18111849Y-11795888D02*
X18102325Y-11814936D01*
X18102325Y-11814936D02*
X18092801Y-11824460D01*
X18092801Y-11824460D02*
X18073754Y-11833984D01*
X18073754Y-11833984D02*
X18045182Y-11833984D01*
X18168992Y-11700650D02*
X18245182Y-11700650D01*
X18197563Y-11633984D02*
X18197563Y-11805412D01*
X18197563Y-11805412D02*
X18207087Y-11824460D01*
X18207087Y-11824460D02*
X18226134Y-11833984D01*
X18226134Y-11833984D02*
X18245182Y-11833984D01*
X18464230Y-11700650D02*
X18464230Y-11900650D01*
X18464230Y-11710174D02*
X18483277Y-11700650D01*
X18483277Y-11700650D02*
X18521373Y-11700650D01*
X18521373Y-11700650D02*
X18540420Y-11710174D01*
X18540420Y-11710174D02*
X18549944Y-11719698D01*
X18549944Y-11719698D02*
X18559468Y-11738746D01*
X18559468Y-11738746D02*
X18559468Y-11795888D01*
X18559468Y-11795888D02*
X18549944Y-11814936D01*
X18549944Y-11814936D02*
X18540420Y-11824460D01*
X18540420Y-11824460D02*
X18521373Y-11833984D01*
X18521373Y-11833984D02*
X18483277Y-11833984D01*
X18483277Y-11833984D02*
X18464230Y-11824460D01*
X18673754Y-11833984D02*
X18654706Y-11824460D01*
X18654706Y-11824460D02*
X18645182Y-11805412D01*
X18645182Y-11805412D02*
X18645182Y-11633984D01*
X18835658Y-11833984D02*
X18835658Y-11729222D01*
X18835658Y-11729222D02*
X18826135Y-11710174D01*
X18826135Y-11710174D02*
X18807087Y-11700650D01*
X18807087Y-11700650D02*
X18768992Y-11700650D01*
X18768992Y-11700650D02*
X18749944Y-11710174D01*
X18835658Y-11824460D02*
X18816611Y-11833984D01*
X18816611Y-11833984D02*
X18768992Y-11833984D01*
X18768992Y-11833984D02*
X18749944Y-11824460D01*
X18749944Y-11824460D02*
X18740420Y-11805412D01*
X18740420Y-11805412D02*
X18740420Y-11786365D01*
X18740420Y-11786365D02*
X18749944Y-11767317D01*
X18749944Y-11767317D02*
X18768992Y-11757793D01*
X18768992Y-11757793D02*
X18816611Y-11757793D01*
X18816611Y-11757793D02*
X18835658Y-11748269D01*
X18902325Y-11700650D02*
X18978515Y-11700650D01*
X18930896Y-11633984D02*
X18930896Y-11805412D01*
X18930896Y-11805412D02*
X18940420Y-11824460D01*
X18940420Y-11824460D02*
X18959468Y-11833984D01*
X18959468Y-11833984D02*
X18978515Y-11833984D01*
X19121373Y-11824460D02*
X19102325Y-11833984D01*
X19102325Y-11833984D02*
X19064230Y-11833984D01*
X19064230Y-11833984D02*
X19045182Y-11824460D01*
X19045182Y-11824460D02*
X19035658Y-11805412D01*
X19035658Y-11805412D02*
X19035658Y-11729222D01*
X19035658Y-11729222D02*
X19045182Y-11710174D01*
X19045182Y-11710174D02*
X19064230Y-11700650D01*
X19064230Y-11700650D02*
X19102325Y-11700650D01*
X19102325Y-11700650D02*
X19121373Y-11710174D01*
X19121373Y-11710174D02*
X19130896Y-11729222D01*
X19130896Y-11729222D02*
X19130896Y-11748269D01*
X19130896Y-11748269D02*
X19035658Y-11767317D01*
X19302325Y-11833984D02*
X19302325Y-11633984D01*
X19302325Y-11824460D02*
X19283277Y-11833984D01*
X19283277Y-11833984D02*
X19245182Y-11833984D01*
X19245182Y-11833984D02*
X19226135Y-11824460D01*
X19226135Y-11824460D02*
X19216611Y-11814936D01*
X19216611Y-11814936D02*
X19207087Y-11795888D01*
X19207087Y-11795888D02*
X19207087Y-11738746D01*
X19207087Y-11738746D02*
X19216611Y-11719698D01*
X19216611Y-11719698D02*
X19226135Y-11710174D01*
X19226135Y-11710174D02*
X19245182Y-11700650D01*
X19245182Y-11700650D02*
X19283277Y-11700650D01*
X19283277Y-11700650D02*
X19302325Y-11710174D01*
X19378516Y-11910174D02*
X19388039Y-11900650D01*
X19388039Y-11900650D02*
X19407087Y-11872079D01*
X19407087Y-11872079D02*
X19416611Y-11853031D01*
X19416611Y-11853031D02*
X19426135Y-11824460D01*
X19426135Y-11824460D02*
X19435658Y-11776841D01*
X19435658Y-11776841D02*
X19435658Y-11738746D01*
X19435658Y-11738746D02*
X19426135Y-11691127D01*
X19426135Y-11691127D02*
X19416611Y-11662555D01*
X19416611Y-11662555D02*
X19407087Y-11643508D01*
X19407087Y-11643508D02*
X19388039Y-11614936D01*
X19388039Y-11614936D02*
X19378516Y-11605412D01*
M02*
