%TF.GenerationSoftware,KiCad,Pcbnew,9.0.4*%
%TF.CreationDate,2025-08-24T10:47:50+01:00*%
%TF.ProjectId,usbc-7seg,75736263-2d37-4736-9567-2e6b69636164,rev?*%
%TF.SameCoordinates,Original*%
%TF.FileFunction,Soldermask,Bot*%
%TF.FilePolarity,Negative*%
%FSLAX46Y46*%
G04 Gerber Fmt 4.6, Leading zero omitted, Abs format (unit mm)*
G04 Created by KiCad (PCBNEW 9.0.4) date 2025-08-24 10:47:50*
%MOMM*%
%LPD*%
G01*
G04 APERTURE LIST*
G04 Aperture macros list*
%AMRoundRect*
0 Rectangle with rounded corners*
0 $1 Rounding radius*
0 $2 $3 $4 $5 $6 $7 $8 $9 X,Y pos of 4 corners*
0 Add a 4 corners polygon primitive as box body*
4,1,4,$2,$3,$4,$5,$6,$7,$8,$9,$2,$3,0*
0 Add four circle primitives for the rounded corners*
1,1,$1+$1,$2,$3*
1,1,$1+$1,$4,$5*
1,1,$1+$1,$6,$7*
1,1,$1+$1,$8,$9*
0 Add four rect primitives between the rounded corners*
20,1,$1+$1,$2,$3,$4,$5,0*
20,1,$1+$1,$4,$5,$6,$7,0*
20,1,$1+$1,$6,$7,$8,$9,0*
20,1,$1+$1,$8,$9,$2,$3,0*%
G04 Aperture macros list end*
%ADD10RoundRect,0.150000X-0.587500X-0.150000X0.587500X-0.150000X0.587500X0.150000X-0.587500X0.150000X0*%
%ADD11R,2.700000X2.700000*%
%ADD12RoundRect,0.050000X0.050000X0.362500X-0.050000X0.362500X-0.050000X-0.362500X0.050000X-0.362500X0*%
%ADD13RoundRect,0.050000X0.362500X0.050000X-0.362500X0.050000X-0.362500X-0.050000X0.362500X-0.050000X0*%
%ADD14RoundRect,0.140000X-0.170000X0.140000X-0.170000X-0.140000X0.170000X-0.140000X0.170000X0.140000X0*%
%ADD15RoundRect,0.225000X0.250000X-0.225000X0.250000X0.225000X-0.250000X0.225000X-0.250000X-0.225000X0*%
%ADD16RoundRect,0.225000X-0.250000X0.225000X-0.250000X-0.225000X0.250000X-0.225000X0.250000X0.225000X0*%
%ADD17C,1.500000*%
%ADD18RoundRect,0.140000X-0.140000X-0.170000X0.140000X-0.170000X0.140000X0.170000X-0.140000X0.170000X0*%
%ADD19RoundRect,0.250000X0.350000X-0.450000X0.350000X0.450000X-0.350000X0.450000X-0.350000X-0.450000X0*%
%ADD20RoundRect,0.150000X-0.150000X0.512500X-0.150000X-0.512500X0.150000X-0.512500X0.150000X0.512500X0*%
%ADD21RoundRect,0.140000X0.140000X0.170000X-0.140000X0.170000X-0.140000X-0.170000X0.140000X-0.170000X0*%
%ADD22RoundRect,0.135000X0.185000X-0.135000X0.185000X0.135000X-0.185000X0.135000X-0.185000X-0.135000X0*%
%ADD23O,1.600000X1.000000*%
%ADD24O,2.100000X1.000000*%
%ADD25C,0.650000*%
G04 APERTURE END LIST*
D10*
%TO.C,Q1*%
X142305000Y-98050000D03*
X140430000Y-97100000D03*
X140430000Y-99000000D03*
%TD*%
D11*
%TO.C,U3*%
X143430000Y-103500000D03*
D12*
X144630000Y-101537500D03*
X144230000Y-101537500D03*
X143830000Y-101537500D03*
X143430000Y-101537500D03*
X143030000Y-101537500D03*
X142630000Y-101537500D03*
X142230000Y-101537500D03*
D13*
X141467500Y-102300000D03*
X141467500Y-102700000D03*
X141467500Y-103100000D03*
X141467500Y-103500000D03*
X141467500Y-103900000D03*
X141467500Y-104300000D03*
X141467500Y-104700000D03*
D12*
X142230000Y-105462500D03*
X142630000Y-105462500D03*
X143030000Y-105462500D03*
X143430000Y-105462500D03*
X143830000Y-105462500D03*
X144230000Y-105462500D03*
X144630000Y-105462500D03*
D13*
X145392500Y-104700000D03*
X145392500Y-104300000D03*
X145392500Y-103900000D03*
X145392500Y-103500000D03*
X145392500Y-103100000D03*
X145392500Y-102700000D03*
X145392500Y-102300000D03*
%TD*%
D10*
%TO.C,Q2*%
X151337500Y-108800000D03*
X149462500Y-107850000D03*
X149462500Y-109750000D03*
%TD*%
D14*
%TO.C,C3*%
X140000000Y-104680000D03*
X140000000Y-103720000D03*
%TD*%
D15*
%TO.C,C1*%
X135900000Y-108125000D03*
X135900000Y-109675000D03*
%TD*%
D14*
%TO.C,C4*%
X146630000Y-105480000D03*
X146630000Y-104520000D03*
%TD*%
D16*
%TO.C,C2*%
X141300000Y-109675000D03*
X141300000Y-108125000D03*
%TD*%
D17*
%TO.C,TP5*%
X128250000Y-101000000D03*
%TD*%
D18*
%TO.C,C5*%
X149430000Y-106200000D03*
X148470000Y-106200000D03*
%TD*%
D19*
%TO.C,Y1*%
X149800000Y-104600000D03*
X149800000Y-102400000D03*
X148100000Y-102400000D03*
X148100000Y-104600000D03*
%TD*%
D20*
%TO.C,U4*%
X138600000Y-109637500D03*
X139550000Y-107362500D03*
X137650000Y-107362500D03*
%TD*%
D21*
%TO.C,C6*%
X148470000Y-100800000D03*
X149430000Y-100800000D03*
%TD*%
D17*
%TO.C,TP2*%
X128250000Y-103500000D03*
%TD*%
%TO.C,TP1*%
X128250000Y-106000000D03*
%TD*%
D22*
%TO.C,R3*%
X130250000Y-106610000D03*
X130250000Y-105590000D03*
%TD*%
D17*
%TO.C,TP3*%
X130750000Y-103500000D03*
%TD*%
%TO.C,TP4*%
X130750000Y-101000000D03*
%TD*%
D23*
%TO.C,J1*%
X129425000Y-107820000D03*
D24*
X133605000Y-107820000D03*
D23*
X129425000Y-99180000D03*
D24*
X133605000Y-99180000D03*
D25*
X133105000Y-106390000D03*
X133105000Y-100610000D03*
%TD*%
M02*
